TestFont-LocalizedForms.ufo
<glyph name="exclam" format="2">
  <advance width="551"/>
  <unicode hex="0021"/>
  <note>
    exclam
  </note>
  <outline>
    <contour>
      <point x="166" y="1462" type="line"/>
      <point x="217" y="412" type="line"/>
      <point x="334" y="412" type="line"/>
      <point x="385" y="1462" type="line"/>
    </contour>
    <contour>
      <point x="147" y="23"/>
      <point x="193" y="-29"/>
      <point x="274" y="-29" type="curve" smooth="yes"/>
      <point x="354" y="-29"/>
      <point x="401" y="26"/>
      <point x="401" y="111" type="curve" smooth="yes"/>
      <point x="401" y="196"/>
      <point x="357" y="248"/>
      <point x="274" y="248" type="curve" smooth="yes"/>
      <point x="191" y="248"/>
      <point x="147" y="199"/>
      <point x="147" y="111" type="curve" smooth="yes"/>
    </contour>
  </outline>
</glyph>
<glyph name="quotedbl" format="2">
  <advance width="836"/>
  <unicode hex="0022"/>
  <note>
    quotedbl
  </note>
  <outline>
    <contour>
      <point x="174" y="934" type="line"/>
      <point x="287" y="934" type="line"/>
      <point x="328" y="1462" type="line"/>
      <point x="133" y="1462" type="line"/>
    </contour>
    <contour>
      <point x="549" y="934" type="line"/>
      <point x="662" y="934" type="line"/>
      <point x="702" y="1462" type="line"/>
      <point x="508" y="1462" type="line"/>
    </contour>
  </outline>
</glyph>
<glyph name="numbersign" format="2">
  <advance width="1323"/>
  <unicode hex="0023"/>
  <note>
    numbersign
  </note>
  <outline>
    <contour>
      <point x="1270" y="1028" type="line"/>
      <point x="1010" y="1028" type="line"/>
      <point x="1092" y="1462" type="line"/>
      <point x="950" y="1462" type="line"/>
      <point x="868" y="1028" type="line"/>
      <point x="573" y="1028" type="line"/>
      <point x="655" y="1462" type="line"/>
      <point x="508" y="1462" type="line"/>
      <point x="426" y="1028" type="line"/>
      <point x="127" y="1028" type="line"/>
      <point x="127" y="893" type="line"/>
      <point x="401" y="893" type="line"/>
      <point x="336" y="565" type="line"/>
      <point x="51" y="565" type="line"/>
      <point x="51" y="428" type="line"/>
      <point x="309" y="428" type="line"/>
      <point x="231" y="0" type="line"/>
      <point x="375" y="0" type="line"/>
      <point x="455" y="428" type="line"/>
      <point x="748" y="428" type="line"/>
      <point x="664" y="0" type="line"/>
      <point x="809" y="0" type="line"/>
      <point x="893" y="428" type="line"/>
      <point x="1200" y="428" type="line"/>
      <point x="1200" y="565" type="line"/>
      <point x="920" y="565" type="line"/>
      <point x="983" y="893" type="line"/>
      <point x="1270" y="893" type="line"/>
    </contour>
    <contour>
      <point x="838" y="893" type="line"/>
      <point x="774" y="565" type="line"/>
      <point x="481" y="565" type="line"/>
      <point x="545" y="893" type="line"/>
    </contour>
  </outline>
</glyph>
<glyph name="quotesingle" format="2">
  <advance width="461"/>
  <unicode hex="0027"/>
  <note>
    quotesingle
  </note>
  <outline>
    <contour>
      <point x="174" y="934" type="line"/>
      <point x="287" y="934" type="line"/>
      <point x="328" y="1462" type="line"/>
      <point x="133" y="1462" type="line"/>
    </contour>
  </outline>
</glyph>
<glyph name="parenleft" format="2">
  <advance width="614"/>
  <unicode hex="0028"/>
  <note>
    parenleft
  </note>
  <outline>
    <contour>
      <point x="82" y="213"/>
      <point x="187" y="-97"/>
      <point x="383" y="-324" type="curve"/>
      <point x="551" y="-324" type="line"/>
      <point x="366" y="-72"/>
      <point x="264" y="243"/>
      <point x="264" y="563" type="curve" smooth="yes"/>
      <point x="264" y="888"/>
      <point x="361" y="1205"/>
      <point x="553" y="1462" type="curve"/>
      <point x="383" y="1462" type="line"/>
      <point x="188" y="1230"/>
      <point x="82" y="914"/>
      <point x="82" y="561" type="curve" smooth="yes"/>
    </contour>
  </outline>
</glyph>
<glyph name="parenright" format="2">
  <advance width="614"/>
  <unicode hex="0029"/>
  <note>
    parenright
  </note>
  <outline>
    <contour>
      <point x="532" y="912"/>
      <point x="427" y="1229"/>
      <point x="231" y="1462" type="curve"/>
      <point x="61" y="1462" type="line"/>
      <point x="253" y="1205"/>
      <point x="350" y="888"/>
      <point x="350" y="563" type="curve" smooth="yes"/>
      <point x="350" y="243"/>
      <point x="248" y="-73"/>
      <point x="63" y="-324" type="curve"/>
      <point x="231" y="-324" type="line"/>
      <point x="426" y="-100"/>
      <point x="532" y="210"/>
      <point x="532" y="561" type="curve" smooth="yes"/>
    </contour>
  </outline>
</glyph>
<glyph name="asterisk" format="2">
  <advance width="1128"/>
  <unicode hex="002A"/>
  <note>
    asterisk
  </note>
  <outline>
    <contour>
      <point x="502" y="1163" type="line"/>
      <point x="113" y="1274" type="line"/>
      <point x="84" y="1085" type="line"/>
      <point x="457" y="1055" type="line"/>
      <point x="217" y="731" type="line"/>
      <point x="399" y="635" type="line"/>
      <point x="557" y="993" type="line"/>
      <point x="731" y="635" type="line"/>
      <point x="907" y="731" type="line"/>
      <point x="664" y="1055" type="line"/>
      <point x="1040" y="1085" type="line"/>
      <point x="1012" y="1274" type="line"/>
      <point x="618" y="1163" type="line"/>
      <point x="659" y="1556" type="line"/>
      <point x="459" y="1556" type="line"/>
    </contour>
  </outline>
</glyph>
<glyph name="comma" format="2">
  <advance width="549"/>
  <unicode hex="002C"/>
  <note>
    comma
  </note>
  <outline>
    <contour>
      <point x="161" y="70"/>
      <point x="127" y="-97"/>
      <point x="84" y="-264" type="curve"/>
      <point x="217" y="-264" type="line"/>
      <point x="298" y="-87"/>
      <point x="356" y="72"/>
      <point x="393" y="215" type="curve"/>
      <point x="379" y="238" type="line"/>
      <point x="186" y="238" type="line"/>
    </contour>
  </outline>
</glyph>
<glyph name="hyphen" format="2">
  <advance width="659"/>
  <unicode hex="002D"/>
  <note>
    hyphen
  </note>
  <outline>
    <contour>
      <point x="578" y="629" type="line"/>
      <point x="82" y="629" type="line"/>
      <point x="82" y="469" type="line"/>
      <point x="578" y="469" type="line"/>
    </contour>
  </outline>
</glyph>
<glyph name="slash" format="2">
  <advance width="762"/>
  <unicode hex="002F"/>
  <note>
    slash
  </note>
  <outline>
    <contour>
      <point x="20" y="0" type="line"/>
      <point x="197" y="0" type="line"/>
      <point x="741" y="1462" type="line"/>
      <point x="565" y="1462" type="line"/>
    </contour>
  </outline>
</glyph>
<glyph name="zero" format="2">
  <advance width="1171"/>
  <unicode hex="0030"/>
  <note>
    zero
  </note>
  <outline>
    <contour>
      <point x="1071" y="1224"/>
      <point x="901" y="1485"/>
      <point x="584" y="1485" type="curve" smooth="yes"/>
      <point x="255" y="1485"/>
      <point x="100" y="1242"/>
      <point x="100" y="733" type="curve" smooth="yes"/>
      <point x="100" y="240"/>
      <point x="267" y="-20"/>
      <point x="584" y="-20" type="curve" smooth="yes"/>
      <point x="912" y="-20"/>
      <point x="1071" y="225"/>
      <point x="1071" y="733" type="curve" smooth="yes"/>
    </contour>
    <contour>
      <point x="281" y="1152"/>
      <point x="371" y="1331"/>
      <point x="584" y="1331" type="curve" smooth="yes"/>
      <point x="797" y="1331"/>
      <point x="889" y="1144"/>
      <point x="889" y="733" type="curve" smooth="yes"/>
      <point x="889" y="318"/>
      <point x="797" y="133"/>
      <point x="584" y="133" type="curve" smooth="yes"/>
      <point x="373" y="133"/>
      <point x="281" y="309"/>
      <point x="281" y="733" type="curve" smooth="yes"/>
    </contour>
  </outline>
</glyph>
<glyph name="one" format="2">
  <advance width="1171"/>
  <unicode hex="0031"/>
  <note>
    one
  </note>
  <outline>
    <contour>
      <point x="578" y="1462" type="line"/>
      <point x="182" y="1155" type="line"/>
      <point x="276" y="1034" type="line"/>
      <point x="357" y="1100"/>
      <point x="431" y="1161"/>
      <point x="499" y="1218" type="curve" smooth="yes"/>
      <point x="520" y="1235"/>
      <point x="540" y="1254"/>
      <point x="559" y="1274" type="curve"/>
      <point x="554" y="1197"/>
      <point x="551" y="1113"/>
      <point x="551" y="1022" type="curve" smooth="yes"/>
      <point x="551" y="0" type="line"/>
      <point x="727" y="0" type="line"/>
      <point x="727" y="1462" type="line"/>
    </contour>
  </outline>
</glyph>
<glyph name="two" format="2">
  <advance width="1171"/>
  <unicode hex="0032"/>
  <note>
    two
  </note>
  <outline>
    <contour>
      <point x="326" y="164" type="line"/>
      <point x="326" y="172" type="line"/>
      <point x="631" y="473" type="line" smooth="yes"/>
      <point x="741" y="580"/>
      <point x="819" y="665"/>
      <point x="866" y="727" type="curve" smooth="yes"/>
      <point x="959" y="850"/>
      <point x="1006" y="966"/>
      <point x="1006" y="1094" type="curve" smooth="yes"/>
      <point x="1006" y="1334"/>
      <point x="835" y="1483"/>
      <point x="563" y="1483" type="curve" smooth="yes"/>
      <point x="401" y="1483"/>
      <point x="252" y="1426"/>
      <point x="115" y="1311" type="curve"/>
      <point x="211" y="1190" type="line"/>
      <point x="346" y="1295"/>
      <point x="443" y="1329"/>
      <point x="563" y="1329" type="curve" smooth="yes"/>
      <point x="723" y="1329"/>
      <point x="821" y="1238"/>
      <point x="821" y="1083" type="curve" smooth="yes"/>
      <point x="821" y="975"/>
      <point x="785" y="887"/>
      <point x="710" y="787" type="curve" smooth="yes"/>
      <point x="673" y="737"/>
      <point x="596" y="654"/>
      <point x="481" y="537" type="curve" smooth="yes"/>
      <point x="98" y="150" type="line"/>
      <point x="98" y="0" type="line"/>
      <point x="1065" y="0" type="line"/>
      <point x="1065" y="164" type="line"/>
    </contour>
  </outline>
</glyph>
<glyph name="three" format="2">
  <advance width="1171"/>
  <unicode hex="0033"/>
  <note>
    three
  </note>
  <outline>
    <contour>
      <point x="1010" y="1344"/>
      <point x="842" y="1483"/>
      <point x="557" y="1483" type="curve" smooth="yes"/>
      <point x="381" y="1483"/>
      <point x="220" y="1426"/>
      <point x="100" y="1331" type="curve"/>
      <point x="190" y="1208" type="line"/>
      <point x="333" y="1301"/>
      <point x="430" y="1331"/>
      <point x="559" y="1331" type="curve" smooth="yes"/>
      <point x="726" y="1331"/>
      <point x="825" y="1248"/>
      <point x="825" y="1108" type="curve" smooth="yes"/>
      <point x="825" y="935"/>
      <point x="688" y="831"/>
      <point x="459" y="831" type="curve" smooth="yes"/>
      <point x="315" y="831" type="line"/>
      <point x="315" y="678" type="line"/>
      <point x="457" y="678" type="line" smooth="yes"/>
      <point x="730" y="678"/>
      <point x="866" y="592"/>
      <point x="866" y="420" type="curve" smooth="yes"/>
      <point x="866" y="227"/>
      <point x="743" y="131"/>
      <point x="496" y="131" type="curve" smooth="yes"/>
      <point x="364" y="131"/>
      <point x="216" y="166"/>
      <point x="92" y="227" type="curve"/>
      <point x="92" y="59" type="line"/>
      <point x="213" y="-1"/>
      <point x="339" y="-20"/>
      <point x="494" y="-20" type="curve" smooth="yes"/>
      <point x="855" y="-20"/>
      <point x="1055" y="137"/>
      <point x="1055" y="416" type="curve" smooth="yes"/>
      <point x="1055" y="608"/>
      <point x="940" y="733"/>
      <point x="707" y="762" type="curve"/>
      <point x="707" y="770" type="line"/>
      <point x="902" y="810"/>
      <point x="1010" y="933"/>
      <point x="1010" y="1120" type="curve" smooth="yes"/>
    </contour>
  </outline>
</glyph>
<glyph name="four" format="2">
  <advance width="1171"/>
  <unicode hex="0034"/>
  <note>
    four
  </note>
  <outline>
    <contour>
      <point x="918" y="494" type="line"/>
      <point x="918" y="1470" type="line"/>
      <point x="731" y="1470" type="line"/>
      <point x="43" y="485" type="line"/>
      <point x="43" y="332" type="line"/>
      <point x="743" y="332" type="line"/>
      <point x="743" y="0" type="line"/>
      <point x="918" y="0" type="line"/>
      <point x="918" y="332" type="line"/>
      <point x="1130" y="332" type="line"/>
      <point x="1130" y="494" type="line"/>
    </contour>
    <contour>
      <point x="657" y="1118" type="line" smooth="yes"/>
      <point x="686" y="1158"/>
      <point x="730" y="1243"/>
      <point x="745" y="1278" type="curve"/>
      <point x="754" y="1278" type="line"/>
      <point x="747" y="1153"/>
      <point x="743" y="1045"/>
      <point x="743" y="954" type="curve" smooth="yes"/>
      <point x="743" y="494" type="line"/>
      <point x="219" y="494" type="line"/>
    </contour>
  </outline>
</glyph>
<glyph name="five" format="2">
  <advance width="1171"/>
  <unicode hex="0035"/>
  <note>
    five
  </note>
  <outline>
    <contour>
      <point x="490" y="897"/>
      <point x="415" y="889"/>
      <point x="338" y="874" type="curve"/>
      <point x="373" y="1298" type="line"/>
      <point x="952" y="1298" type="line"/>
      <point x="952" y="1462" type="line"/>
      <point x="219" y="1462" type="line"/>
      <point x="164" y="772" type="line"/>
      <point x="254" y="715" type="line"/>
      <point x="342" y="735"/>
      <point x="425" y="745"/>
      <point x="504" y="745" type="curve" smooth="yes"/>
      <point x="748" y="745"/>
      <point x="870" y="646"/>
      <point x="870" y="449" type="curve" smooth="yes"/>
      <point x="870" y="246"/>
      <point x="739" y="133"/>
      <point x="510" y="133" type="curve" smooth="yes"/>
      <point x="378" y="133"/>
      <point x="228" y="170"/>
      <point x="129" y="229" type="curve"/>
      <point x="129" y="59" type="line"/>
      <point x="218" y="6"/>
      <point x="345" y="-20"/>
      <point x="508" y="-20" type="curve" smooth="yes"/>
      <point x="851" y="-20"/>
      <point x="1055" y="163"/>
      <point x="1055" y="467" type="curve" smooth="yes"/>
      <point x="1055" y="734"/>
      <point x="868" y="897"/>
      <point x="563" y="897" type="curve" smooth="yes"/>
    </contour>
  </outline>
</glyph>
<glyph name="six" format="2">
  <advance width="1171"/>
  <unicode hex="0036"/>
  <note>
    six
  </note>
  <outline>
    <contour>
      <point x="113" y="492"/>
      <point x="133" y="376"/>
      <point x="174" y="279" type="curve" smooth="yes"/>
      <point x="255" y="83"/>
      <point x="410" y="-20"/>
      <point x="610" y="-20" type="curve" smooth="yes"/>
      <point x="897" y="-20"/>
      <point x="1075" y="168"/>
      <point x="1075" y="471" type="curve" smooth="yes"/>
      <point x="1075" y="743"/>
      <point x="915" y="915"/>
      <point x="651" y="915" type="curve" smooth="yes"/>
      <point x="494" y="915"/>
      <point x="378" y="858"/>
      <point x="305" y="743" type="curve"/>
      <point x="293" y="743" type="line"/>
      <point x="310" y="1154"/>
      <point x="475" y="1335"/>
      <point x="786" y="1335" type="curve" smooth="yes"/>
      <point x="853" y="1335"/>
      <point x="912" y="1327"/>
      <point x="963" y="1311" type="curve"/>
      <point x="963" y="1464" type="line"/>
      <point x="920" y="1477"/>
      <point x="859" y="1483"/>
      <point x="782" y="1483" type="curve" smooth="yes"/>
      <point x="336" y="1483"/>
      <point x="113" y="1197"/>
      <point x="113" y="625" type="curve" smooth="yes"/>
    </contour>
    <contour>
      <point x="547" y="131"/>
      <point x="493" y="148"/>
      <point x="446" y="181" type="curve" smooth="yes"/>
      <point x="351" y="248"/>
      <point x="295" y="373"/>
      <point x="295" y="506" type="curve" smooth="yes"/>
      <point x="295" y="551"/>
      <point x="310" y="595"/>
      <point x="339" y="638" type="curve" smooth="yes"/>
      <point x="397" y="723"/>
      <point x="498" y="774"/>
      <point x="614" y="774" type="curve" smooth="yes"/>
      <point x="797" y="774"/>
      <point x="897" y="666"/>
      <point x="897" y="471" type="curve" smooth="yes"/>
      <point x="897" y="255"/>
      <point x="793" y="131"/>
      <point x="608" y="131" type="curve" smooth="yes"/>
    </contour>
  </outline>
</glyph>
<glyph name="seven" format="2">
  <advance width="1171"/>
  <unicode hex="0037"/>
  <note>
    seven
  </note>
  <outline>
    <contour>
      <point x="1071" y="1323" type="line"/>
      <point x="1071" y="1462" type="line"/>
      <point x="90" y="1462" type="line"/>
      <point x="90" y="1298" type="line"/>
      <point x="879" y="1298" type="line"/>
      <point x="279" y="0" type="line"/>
      <point x="477" y="0" type="line"/>
    </contour>
  </outline>
</glyph>
<glyph name="eight" format="2">
  <advance width="1171"/>
  <unicode hex="0038"/>
  <note>
    eight
  </note>
  <outline>
    <contour>
      <point x="320" y="1483"/>
      <point x="147" y="1347"/>
      <point x="147" y="1135" type="curve" smooth="yes"/>
      <point x="147" y="984"/>
      <point x="222" y="868"/>
      <point x="403" y="764" type="curve"/>
      <point x="201" y="670"/>
      <point x="100" y="540"/>
      <point x="100" y="373" type="curve" smooth="yes"/>
      <point x="100" y="121"/>
      <point x="278" y="-20"/>
      <point x="590" y="-20" type="curve" smooth="yes"/>
      <point x="885" y="-20"/>
      <point x="1069" y="136"/>
      <point x="1069" y="379" type="curve" smooth="yes"/>
      <point x="1069" y="542"/>
      <point x="979" y="659"/>
      <point x="743" y="774" type="curve"/>
      <point x="938" y="874"/>
      <point x="1022" y="986"/>
      <point x="1022" y="1133" type="curve" smooth="yes"/>
      <point x="1022" y="1352"/>
      <point x="851" y="1483"/>
      <point x="584" y="1483" type="curve" smooth="yes"/>
    </contour>
    <contour>
      <point x="276" y="511"/>
      <point x="360" y="607"/>
      <point x="553" y="690" type="curve"/>
      <point x="798" y="601"/>
      <point x="893" y="505"/>
      <point x="893" y="377" type="curve" smooth="yes"/>
      <point x="893" y="218"/>
      <point x="777" y="123"/>
      <point x="586" y="123" type="curve" smooth="yes"/>
      <point x="393" y="123"/>
      <point x="276" y="216"/>
      <point x="276" y="371" type="curve" smooth="yes"/>
    </contour>
    <contour>
      <point x="742" y="1337"/>
      <point x="844" y="1259"/>
      <point x="844" y="1126" type="curve" smooth="yes"/>
      <point x="844" y="1007"/>
      <point x="775" y="920"/>
      <point x="592" y="844" type="curve"/>
      <point x="517" y="875"/>
      <point x="463" y="904"/>
      <point x="429" y="929" type="curve" smooth="yes"/>
      <point x="361" y="980"/>
      <point x="324" y="1042"/>
      <point x="324" y="1126" type="curve" smooth="yes"/>
      <point x="324" y="1258"/>
      <point x="425" y="1337"/>
      <point x="582" y="1337" type="curve" smooth="yes"/>
    </contour>
  </outline>
</glyph>
<glyph name="nine" format="2">
  <advance width="1171"/>
  <unicode hex="0039"/>
  <note>
    nine
  </note>
  <outline>
    <contour>
      <point x="1065" y="971"/>
      <point x="1045" y="1086"/>
      <point x="1005" y="1184" type="curve" smooth="yes"/>
      <point x="924" y="1379"/>
      <point x="769" y="1483"/>
      <point x="569" y="1483" type="curve" smooth="yes"/>
      <point x="285" y="1483"/>
      <point x="102" y="1290"/>
      <point x="102" y="989" type="curve" smooth="yes"/>
      <point x="102" y="713"/>
      <point x="265" y="547"/>
      <point x="522" y="547" type="curve" smooth="yes"/>
      <point x="679" y="547"/>
      <point x="795" y="604"/>
      <point x="870" y="717" type="curve"/>
      <point x="883" y="717" type="line"/>
      <point x="878" y="578"/>
      <point x="857" y="467"/>
      <point x="820" y="384" type="curve" smooth="yes"/>
      <point x="746" y="216"/>
      <point x="606" y="127"/>
      <point x="389" y="127" type="curve" smooth="yes"/>
      <point x="320" y="127"/>
      <point x="260" y="136"/>
      <point x="209" y="154" type="curve"/>
      <point x="209" y="0" type="line"/>
      <point x="254" y="-13"/>
      <point x="316" y="-20"/>
      <point x="393" y="-20" type="curve" smooth="yes"/>
      <point x="841" y="-20"/>
      <point x="1065" y="266"/>
      <point x="1065" y="838" type="curve" smooth="yes"/>
    </contour>
    <contour>
      <point x="631" y="1331"/>
      <point x="686" y="1314"/>
      <point x="733" y="1281" type="curve" smooth="yes"/>
      <point x="828" y="1213"/>
      <point x="883" y="1089"/>
      <point x="883" y="956" type="curve" smooth="yes"/>
      <point x="883" y="910"/>
      <point x="869" y="866"/>
      <point x="841" y="825" type="curve" smooth="yes"/>
      <point x="785" y="742"/>
      <point x="681" y="690"/>
      <point x="561" y="690" type="curve" smooth="yes"/>
      <point x="378" y="690"/>
      <point x="281" y="796"/>
      <point x="281" y="991" type="curve" smooth="yes"/>
      <point x="281" y="1207"/>
      <point x="388" y="1331"/>
      <point x="569" y="1331" type="curve" smooth="yes"/>
    </contour>
  </outline>
</glyph>
<glyph name="colon" format="2">
  <advance width="549"/>
  <unicode hex="003A"/>
  <note>
    colon
  </note>
  <outline>
    <contour>
      <point x="147" y="23"/>
      <point x="193" y="-29"/>
      <point x="272" y="-29" type="curve" smooth="yes"/>
      <point x="353" y="-29"/>
      <point x="401" y="24"/>
      <point x="401" y="111" type="curve" smooth="yes"/>
      <point x="401" y="199"/>
      <point x="353" y="248"/>
      <point x="272" y="248" type="curve" smooth="yes"/>
      <point x="192" y="248"/>
      <point x="147" y="199"/>
      <point x="147" y="111" type="curve" smooth="yes"/>
    </contour>
    <contour>
      <point x="147" y="900"/>
      <point x="193" y="848"/>
      <point x="272" y="848" type="curve" smooth="yes"/>
      <point x="353" y="848"/>
      <point x="401" y="902"/>
      <point x="401" y="987" type="curve" smooth="yes"/>
      <point x="401" y="1076"/>
      <point x="356" y="1126"/>
      <point x="272" y="1126" type="curve" smooth="yes"/>
      <point x="189" y="1126"/>
      <point x="147" y="1075"/>
      <point x="147" y="987" type="curve" smooth="yes"/>
    </contour>
  </outline>
</glyph>
<glyph name="semicolon" format="2">
  <advance width="549"/>
  <unicode hex="003B"/>
  <note>
    semicolon
  </note>
  <outline>
    <contour>
      <point x="151" y="115"/>
      <point x="99" y="-125"/>
      <point x="63" y="-264" type="curve"/>
      <point x="199" y="-264" type="line"/>
      <point x="282" y="-77"/>
      <point x="340" y="82"/>
      <point x="375" y="215" type="curve"/>
      <point x="360" y="238" type="line"/>
      <point x="168" y="238" type="line"/>
    </contour>
    <contour>
      <point x="143" y="900"/>
      <point x="189" y="848"/>
      <point x="268" y="848" type="curve" smooth="yes"/>
      <point x="349" y="848"/>
      <point x="397" y="899"/>
      <point x="397" y="987" type="curve" smooth="yes"/>
      <point x="397" y="1080"/>
      <point x="354" y="1126"/>
      <point x="268" y="1126" type="curve" smooth="yes"/>
      <point x="185" y="1126"/>
      <point x="143" y="1075"/>
      <point x="143" y="987" type="curve" smooth="yes"/>
    </contour>
  </outline>
</glyph>
<glyph name="question" format="2">
  <advance width="889"/>
  <unicode hex="003F"/>
  <note>
    question
  </note>
  <outline>
    <contour>
      <point x="430" y="446" type="line" smooth="yes"/>
      <point x="430" y="567"/>
      <point x="462" y="620"/>
      <point x="594" y="733" type="curve" smooth="yes"/>
      <point x="675" y="800"/>
      <point x="729" y="851"/>
      <point x="756" y="885" type="curve" smooth="yes"/>
      <point x="810" y="953"/>
      <point x="836" y="1025"/>
      <point x="836" y="1124" type="curve" smooth="yes"/>
      <point x="836" y="1351"/>
      <point x="681" y="1483"/>
      <point x="428" y="1483" type="curve" smooth="yes"/>
      <point x="286" y="1483"/>
      <point x="152" y="1449"/>
      <point x="25" y="1382" type="curve"/>
      <point x="88" y="1239" type="line"/>
      <point x="215" y="1300"/>
      <point x="309" y="1325"/>
      <point x="416" y="1325" type="curve" smooth="yes"/>
      <point x="576" y="1325"/>
      <point x="664" y="1252"/>
      <point x="664" y="1120" type="curve" smooth="yes"/>
      <point x="664" y="1049"/>
      <point x="647" y="1000"/>
      <point x="602" y="947" type="curve" smooth="yes"/>
      <point x="579" y="920"/>
      <point x="532" y="876"/>
      <point x="459" y="815" type="curve" smooth="yes"/>
      <point x="331" y="708"/>
      <point x="287" y="626"/>
      <point x="287" y="467" type="curve" smooth="yes"/>
      <point x="287" y="412" type="line"/>
      <point x="430" y="412" type="line"/>
    </contour>
    <contour>
      <point x="240" y="12"/>
      <point x="292" y="-29"/>
      <point x="367" y="-29" type="curve" smooth="yes"/>
      <point x="443" y="-29"/>
      <point x="492" y="22"/>
      <point x="492" y="111" type="curve" smooth="yes"/>
      <point x="492" y="202"/>
      <point x="444" y="248"/>
      <point x="367" y="248" type="curve" smooth="yes"/>
      <point x="282" y="248"/>
      <point x="240" y="202"/>
      <point x="240" y="111" type="curve" smooth="yes"/>
    </contour>
  </outline>
</glyph>
<glyph name="A" format="2">
  <advance width="1309"/>
  <unicode hex="0041"/>
  <note>
    A
  </note>
  <outline>
    <contour>
      <point x="737" y="1468" type="line"/>
      <point x="571" y="1468" type="line"/>
      <point x="0" y="0" type="line"/>
      <point x="186" y="0" type="line"/>
      <point x="360" y="453" type="line"/>
      <point x="940" y="453" type="line"/>
      <point x="1116" y="0" type="line"/>
      <point x="1307" y="0" type="line"/>
    </contour>
    <contour>
      <point x="588" y="1059" type="line"/>
      <point x="610" y="1125"/>
      <point x="631" y="1198"/>
      <point x="651" y="1278" type="curve"/>
      <point x="721" y="1059" type="line"/>
      <point x="885" y="616" type="line"/>
      <point x="422" y="616" type="line"/>
    </contour>
  </outline>
</glyph>
<glyph name="B" format="2">
  <advance width="1331"/>
  <unicode hex="0042"/>
  <note>
    B
  </note>
  <outline>
    <contour>
      <point x="713" y="0" type="line" smooth="yes"/>
      <point x="1033" y="0"/>
      <point x="1221" y="155"/>
      <point x="1221" y="416" type="curve" smooth="yes"/>
      <point x="1221" y="609"/>
      <point x="1118" y="727"/>
      <point x="893" y="766" type="curve"/>
      <point x="893" y="776" type="line"/>
      <point x="1074" y="809"/>
      <point x="1171" y="927"/>
      <point x="1171" y="1100" type="curve" smooth="yes"/>
      <point x="1171" y="1349"/>
      <point x="1008" y="1462"/>
      <point x="616" y="1462" type="curve" smooth="yes"/>
      <point x="199" y="1462" type="line"/>
      <point x="199" y="0" type="line"/>
    </contour>
    <contour>
      <point x="625" y="1305" type="line" smooth="yes"/>
      <point x="872" y="1305"/>
      <point x="981" y="1239"/>
      <point x="981" y="1079" type="curve" smooth="yes"/>
      <point x="981" y="907"/>
      <point x="882" y="840"/>
      <point x="653" y="840" type="curve" smooth="yes"/>
      <point x="383" y="840" type="line"/>
      <point x="383" y="1305" type="line"/>
    </contour>
    <contour>
      <point x="904" y="686"/>
      <point x="1024" y="605"/>
      <point x="1024" y="430" type="curve" smooth="yes"/>
      <point x="1024" y="246"/>
      <point x="913" y="156"/>
      <point x="678" y="156" type="curve" smooth="yes"/>
      <point x="383" y="156" type="line"/>
      <point x="383" y="686" type="line"/>
      <point x="664" y="686" type="line" smooth="yes"/>
    </contour>
  </outline>
</glyph>
<glyph name="C" format="2">
  <advance width="1294"/>
  <unicode hex="0043"/>
  <note>
    C
  </note>
  <outline>
    <contour>
      <point x="930" y="1321"/>
      <point x="1040" y="1294"/>
      <point x="1157" y="1241" type="curve"/>
      <point x="1231" y="1397" type="line"/>
      <point x="1116" y="1454"/>
      <point x="982" y="1483"/>
      <point x="827" y="1483" type="curve" smooth="yes"/>
      <point x="683" y="1483"/>
      <point x="558" y="1452"/>
      <point x="452" y="1391" type="curve" smooth="yes"/>
      <point x="239" y="1268"/>
      <point x="125" y="1034"/>
      <point x="125" y="733" type="curve" smooth="yes"/>
      <point x="125" y="253"/>
      <point x="366" y="-20"/>
      <point x="797" y="-20" type="curve" smooth="yes"/>
      <point x="946" y="-20"/>
      <point x="1050" y="-6"/>
      <point x="1174" y="39" type="curve"/>
      <point x="1174" y="199" type="line"/>
      <point x="1044" y="160"/>
      <point x="927" y="141"/>
      <point x="823" y="141" type="curve" smooth="yes"/>
      <point x="500" y="141"/>
      <point x="319" y="354"/>
      <point x="319" y="731" type="curve" smooth="yes"/>
      <point x="319" y="1096"/>
      <point x="510" y="1321"/>
      <point x="825" y="1321" type="curve" smooth="yes"/>
    </contour>
  </outline>
</glyph>
<glyph name="D" format="2">
  <advance width="1495"/>
  <unicode hex="0044"/>
  <note>
    D
  </note>
  <outline>
    <contour>
      <point x="1370" y="1201"/>
      <point x="1104" y="1462"/>
      <point x="649" y="1462" type="curve" smooth="yes"/>
      <point x="199" y="1462" type="line"/>
      <point x="199" y="0" type="line"/>
      <point x="606" y="0" type="line" smooth="yes"/>
      <point x="1098" y="0"/>
      <point x="1370" y="262"/>
      <point x="1370" y="745" type="curve" smooth="yes"/>
    </contour>
    <contour>
      <point x="1176" y="352"/>
      <point x="978" y="158"/>
      <point x="582" y="158" type="curve" smooth="yes"/>
      <point x="383" y="158" type="line"/>
      <point x="383" y="1305" type="line"/>
      <point x="623" y="1305" type="line" smooth="yes"/>
      <point x="994" y="1305"/>
      <point x="1176" y="1111"/>
      <point x="1176" y="739" type="curve" smooth="yes"/>
    </contour>
  </outline>
</glyph>
<glyph name="E" format="2">
  <advance width="1139"/>
  <unicode hex="0045"/>
  <note>
    E
  </note>
  <outline>
    <contour>
      <point x="383" y="162" type="line"/>
      <point x="383" y="684" type="line"/>
      <point x="979" y="684" type="line"/>
      <point x="979" y="844" type="line"/>
      <point x="383" y="844" type="line"/>
      <point x="383" y="1300" type="line"/>
      <point x="1016" y="1300" type="line"/>
      <point x="1016" y="1462" type="line"/>
      <point x="199" y="1462" type="line"/>
      <point x="199" y="0" type="line"/>
      <point x="1016" y="0" type="line"/>
      <point x="1016" y="162" type="line"/>
    </contour>
  </outline>
</glyph>
<glyph name="F" format="2">
  <advance width="1063"/>
  <unicode hex="0046"/>
  <note>
    F
  </note>
  <outline>
    <contour>
      <point x="977" y="621" type="line"/>
      <point x="977" y="782" type="line"/>
      <point x="383" y="782" type="line"/>
      <point x="383" y="1300" type="line"/>
      <point x="1016" y="1300" type="line"/>
      <point x="1016" y="1462" type="line"/>
      <point x="199" y="1462" type="line"/>
      <point x="199" y="0" type="line"/>
      <point x="383" y="0" type="line"/>
      <point x="383" y="621" type="line"/>
    </contour>
  </outline>
</glyph>
<glyph name="G" format="2">
  <advance width="1491"/>
  <unicode hex="0047"/>
  <note>
    G
  </note>
  <outline>
    <contour>
      <point x="1155" y="608" type="line"/>
      <point x="1155" y="174" type="line"/>
      <point x="1062" y="151"/>
      <point x="966" y="139"/>
      <point x="868" y="139" type="curve" smooth="yes"/>
      <point x="509" y="139"/>
      <point x="317" y="344"/>
      <point x="317" y="731" type="curve" smooth="yes"/>
      <point x="317" y="1096"/>
      <point x="524" y="1321"/>
      <point x="872" y="1321" type="curve" smooth="yes"/>
      <point x="995" y="1321"/>
      <point x="1120" y="1293"/>
      <point x="1249" y="1237" type="curve"/>
      <point x="1319" y="1397" type="line"/>
      <point x="1184" y="1454"/>
      <point x="1039" y="1483"/>
      <point x="883" y="1483" type="curve" smooth="yes"/>
      <point x="728" y="1483"/>
      <point x="593" y="1453"/>
      <point x="479" y="1393" type="curve" smooth="yes"/>
      <point x="250" y="1272"/>
      <point x="125" y="1036"/>
      <point x="125" y="731" type="curve" smooth="yes"/>
      <point x="125" y="258"/>
      <point x="380" y="-20"/>
      <point x="825" y="-20" type="curve" smooth="yes"/>
      <point x="1036" y="-20"/>
      <point x="1184" y="6"/>
      <point x="1339" y="55" type="curve"/>
      <point x="1339" y="772" type="line"/>
      <point x="834" y="772" type="line"/>
      <point x="834" y="608" type="line"/>
    </contour>
  </outline>
</glyph>
<glyph name="H" format="2">
  <advance width="1518"/>
  <unicode hex="0048"/>
  <note>
    H
  </note>
  <outline>
    <contour>
      <point x="1133" y="1462" type="line"/>
      <point x="1133" y="844" type="line"/>
      <point x="383" y="844" type="line"/>
      <point x="383" y="1462" type="line"/>
      <point x="199" y="1462" type="line"/>
      <point x="199" y="0" type="line"/>
      <point x="383" y="0" type="line"/>
      <point x="383" y="682" type="line"/>
      <point x="1133" y="682" type="line"/>
      <point x="1133" y="0" type="line"/>
      <point x="1317" y="0" type="line"/>
      <point x="1317" y="1462" type="line"/>
    </contour>
  </outline>
</glyph>
<glyph name="I" format="2">
  <advance width="694"/>
  <unicode hex="0049"/>
  <note>
    I
  </note>
  <outline>
    <contour>
      <point x="438" y="145" type="line"/>
      <point x="438" y="1315" type="line"/>
      <point x="610" y="1356" type="line"/>
      <point x="610" y="1462" type="line"/>
      <point x="82" y="1462" type="line"/>
      <point x="82" y="1356" type="line"/>
      <point x="254" y="1315" type="line"/>
      <point x="254" y="145" type="line"/>
      <point x="82" y="106" type="line"/>
      <point x="82" y="0" type="line"/>
      <point x="610" y="0" type="line"/>
      <point x="610" y="106" type="line"/>
    </contour>
  </outline>
</glyph>
<glyph name="J" format="2">
  <advance width="559"/>
  <unicode hex="004A"/>
  <note>
    J
  </note>
  <outline>
    <contour>
      <point x="237" y="-389"/>
      <point x="373" y="-241"/>
      <point x="373" y="23" type="curve" smooth="yes"/>
      <point x="373" y="1462" type="line"/>
      <point x="188" y="1462" type="line"/>
      <point x="188" y="8" type="line" smooth="yes"/>
      <point x="188" y="-144"/>
      <point x="121" y="-227"/>
      <point x="-12" y="-227" type="curve" smooth="yes"/>
      <point x="-63" y="-227"/>
      <point x="-113" y="-220"/>
      <point x="-160" y="-207" type="curve"/>
      <point x="-160" y="-362" type="line"/>
      <point x="-121" y="-380"/>
      <point x="-71" y="-389"/>
      <point x="-8" y="-389" type="curve" smooth="yes"/>
    </contour>
  </outline>
</glyph>
<glyph name="K" format="2">
  <advance width="1268"/>
  <unicode hex="004B"/>
  <note>
    K
  </note>
  <outline>
    <contour>
      <point x="1245" y="1462" type="line"/>
      <point x="1030" y="1462" type="line"/>
      <point x="509" y="880" type="line"/>
      <point x="383" y="741" type="line"/>
      <point x="383" y="1462" type="line"/>
      <point x="199" y="1462" type="line"/>
      <point x="199" y="0" type="line"/>
      <point x="383" y="0" type="line"/>
      <point x="383" y="567" type="line"/>
      <point x="532" y="698" type="line"/>
      <point x="1051" y="0" type="line"/>
      <point x="1268" y="0" type="line"/>
      <point x="666" y="825" type="line"/>
    </contour>
  </outline>
</glyph>
<glyph name="L" format="2">
  <advance width="1073"/>
  <unicode hex="004C"/>
  <note>
    L
  </note>
  <outline>
    <contour>
      <point x="1022" y="164" type="line"/>
      <point x="383" y="164" type="line"/>
      <point x="383" y="1462" type="line"/>
      <point x="199" y="1462" type="line"/>
      <point x="199" y="0" type="line"/>
      <point x="1022" y="0" type="line"/>
    </contour>
  </outline>
</glyph>
<glyph name="M" format="2">
  <advance width="1858"/>
  <unicode hex="004D"/>
  <note>
    M
  </note>
  <outline>
    <contour>
      <point x="1483" y="1280" type="line"/>
      <point x="1491" y="1280" type="line"/>
      <point x="1482" y="1126"/>
      <point x="1477" y="999"/>
      <point x="1477" y="899" type="curve" smooth="yes"/>
      <point x="1477" y="0" type="line"/>
      <point x="1659" y="0" type="line"/>
      <point x="1659" y="1462" type="line"/>
      <point x="1389" y="1462" type="line"/>
      <point x="930" y="264" type="line"/>
      <point x="922" y="264" type="line"/>
      <point x="471" y="1462" type="line"/>
      <point x="199" y="1462" type="line"/>
      <point x="199" y="0" type="line"/>
      <point x="369" y="0" type="line"/>
      <point x="369" y="887" type="line" smooth="yes"/>
      <point x="369" y="1044"/>
      <point x="364" y="1175"/>
      <point x="354" y="1282" type="curve"/>
      <point x="362" y="1282" type="line"/>
      <point x="844" y="0" type="line"/>
      <point x="995" y="0" type="line"/>
    </contour>
  </outline>
</glyph>
<glyph name="N" format="2">
  <advance width="1556"/>
  <unicode hex="004E"/>
  <note>
    N
  </note>
  <outline>
    <contour>
      <point x="1186" y="1462" type="line"/>
      <point x="1186" y="637" type="line" smooth="yes"/>
      <point x="1186" y="549"/>
      <point x="1197" y="284"/>
      <point x="1200" y="252" type="curve"/>
      <point x="1192" y="252" type="line"/>
      <point x="937" y="649" type="line"/>
      <point x="457" y="1391" type="line"/>
      <point x="412" y="1462" type="line"/>
      <point x="199" y="1462" type="line"/>
      <point x="199" y="0" type="line"/>
      <point x="369" y="0" type="line"/>
      <point x="369" y="817" type="line" smooth="yes"/>
      <point x="369" y="906"/>
      <point x="365" y="1012"/>
      <point x="357" y="1133" type="curve" smooth="yes"/>
      <point x="352" y="1214" type="line"/>
      <point x="360" y="1214" type="line"/>
      <point x="1143" y="0" type="line"/>
      <point x="1358" y="0" type="line"/>
      <point x="1358" y="1462" type="line"/>
    </contour>
  </outline>
</glyph>
<glyph name="O" format="2">
  <advance width="1599"/>
  <unicode hex="004F"/>
  <note>
    O
  </note>
  <outline>
    <contour>
      <point x="1475" y="1204"/>
      <point x="1227" y="1485"/>
      <point x="803" y="1485" type="curve" smooth="yes"/>
      <point x="367" y="1485"/>
      <point x="125" y="1211"/>
      <point x="125" y="735" type="curve" smooth="yes"/>
      <point x="125" y="255"/>
      <point x="370" y="-20"/>
      <point x="801" y="-20" type="curve" smooth="yes"/>
      <point x="1226" y="-20"/>
      <point x="1475" y="265"/>
      <point x="1475" y="733" type="curve" smooth="yes"/>
    </contour>
    <contour>
      <point x="319" y="1118"/>
      <point x="486" y="1323"/>
      <point x="803" y="1323" type="curve" smooth="yes"/>
      <point x="1116" y="1323"/>
      <point x="1280" y="1124"/>
      <point x="1280" y="733" type="curve" smooth="yes"/>
      <point x="1280" y="341"/>
      <point x="1114" y="139"/>
      <point x="801" y="139" type="curve" smooth="yes"/>
      <point x="486" y="139"/>
      <point x="319" y="346"/>
      <point x="319" y="733" type="curve" smooth="yes"/>
    </contour>
  </outline>
</glyph>
<glyph name="P" format="2">
  <advance width="1239"/>
  <unicode hex="0050"/>
  <note>
    P
  </note>
  <outline>
    <contour>
      <point x="1135" y="1319"/>
      <point x="952" y="1462"/>
      <point x="586" y="1462" type="curve" smooth="yes"/>
      <point x="199" y="1462" type="line"/>
      <point x="199" y="0" type="line"/>
      <point x="383" y="0" type="line"/>
      <point x="383" y="569" type="line"/>
      <point x="551" y="569" type="line" smooth="yes"/>
      <point x="922" y="569"/>
      <point x="1135" y="733"/>
      <point x="1135" y="1032" type="curve" smooth="yes"/>
    </contour>
    <contour>
      <point x="569" y="1305" type="line" smooth="yes"/>
      <point x="826" y="1305"/>
      <point x="944" y="1212"/>
      <point x="944" y="1024" type="curve" smooth="yes"/>
      <point x="944" y="816"/>
      <point x="821" y="727"/>
      <point x="530" y="727" type="curve" smooth="yes"/>
      <point x="383" y="727" type="line"/>
      <point x="383" y="1305" type="line"/>
    </contour>
  </outline>
</glyph>
<glyph name="Q" format="2">
  <advance width="1599"/>
  <unicode hex="0051"/>
  <note>
    Q
  </note>
  <outline>
    <contour>
      <point x="1475" y="1204"/>
      <point x="1227" y="1485"/>
      <point x="803" y="1485" type="curve" smooth="yes"/>
      <point x="367" y="1485"/>
      <point x="125" y="1211"/>
      <point x="125" y="735" type="curve" smooth="yes"/>
      <point x="125" y="255"/>
      <point x="370" y="-20"/>
      <point x="801" y="-20" type="curve"/>
      <point x="852" y="-18" type="line"/>
      <point x="1135" y="-348" type="line"/>
      <point x="1399" y="-348" type="line"/>
      <point x="1049" y="16" type="line"/>
      <point x="1321" y="109"/>
      <point x="1475" y="364"/>
      <point x="1475" y="733" type="curve" smooth="yes"/>
    </contour>
    <contour>
      <point x="319" y="1118"/>
      <point x="486" y="1323"/>
      <point x="803" y="1323" type="curve" smooth="yes"/>
      <point x="1116" y="1323"/>
      <point x="1280" y="1124"/>
      <point x="1280" y="733" type="curve" smooth="yes"/>
      <point x="1280" y="341"/>
      <point x="1114" y="139"/>
      <point x="801" y="139" type="curve" smooth="yes"/>
      <point x="486" y="139"/>
      <point x="319" y="346"/>
      <point x="319" y="733" type="curve" smooth="yes"/>
    </contour>
  </outline>
</glyph>
<glyph name="S" format="2">
  <advance width="1124"/>
  <unicode hex="0053"/>
  <note>
    S
  </note>
  <outline>
    <contour>
      <point x="1028" y="459"/>
      <point x="1015" y="518"/>
      <point x="990" y="567" type="curve" smooth="yes"/>
      <point x="939" y="665"/>
      <point x="846" y="733"/>
      <point x="629" y="813" type="curve" smooth="yes"/>
      <point x="538" y="846"/>
      <point x="472" y="876"/>
      <point x="430" y="902" type="curve" smooth="yes"/>
      <point x="345" y="954"/>
      <point x="309" y="1012"/>
      <point x="309" y="1108" type="curve" smooth="yes"/>
      <point x="309" y="1243"/>
      <point x="413" y="1321"/>
      <point x="586" y="1321" type="curve" smooth="yes"/>
      <point x="694" y="1321"/>
      <point x="811" y="1295"/>
      <point x="936" y="1243" type="curve"/>
      <point x="993" y="1401" type="line"/>
      <point x="870" y="1456"/>
      <point x="736" y="1483"/>
      <point x="590" y="1483" type="curve" smooth="yes"/>
      <point x="310" y="1483"/>
      <point x="123" y="1338"/>
      <point x="123" y="1110" type="curve" smooth="yes"/>
      <point x="123" y="898"/>
      <point x="229" y="775"/>
      <point x="500" y="676" type="curve" smooth="yes"/>
      <point x="595" y="641"/>
      <point x="667" y="610"/>
      <point x="714" y="583" type="curve" smooth="yes"/>
      <point x="808" y="528"/>
      <point x="844" y="472"/>
      <point x="844" y="375" type="curve" smooth="yes"/>
      <point x="844" y="228"/>
      <point x="733" y="139"/>
      <point x="514" y="139" type="curve" smooth="yes"/>
      <point x="386" y="139"/>
      <point x="228" y="172"/>
      <point x="104" y="225" type="curve"/>
      <point x="104" y="49" type="line"/>
      <point x="199" y="3"/>
      <point x="333" y="-20"/>
      <point x="506" y="-20" type="curve" smooth="yes"/>
      <point x="834" y="-20"/>
      <point x="1028" y="136"/>
      <point x="1028" y="391" type="curve" smooth="yes"/>
    </contour>
  </outline>
</glyph>
<glyph name="T" format="2">
  <advance width="1139"/>
  <unicode hex="0054"/>
  <note>
    T
  </note>
  <outline>
    <contour>
      <point x="1116" y="1300" type="line"/>
      <point x="1116" y="1462" type="line"/>
      <point x="20" y="1462" type="line"/>
      <point x="20" y="1300" type="line"/>
      <point x="477" y="1300" type="line"/>
      <point x="477" y="0" type="line"/>
      <point x="662" y="0" type="line"/>
      <point x="662" y="1300" type="line"/>
    </contour>
  </outline>
</glyph>
<glyph name="U" format="2">
  <advance width="1497"/>
  <unicode hex="0055"/>
  <note>
    U
  </note>
  <outline>
    <contour>
      <point x="1128" y="516" type="line" smooth="yes"/>
      <point x="1128" y="272"/>
      <point x="993" y="139"/>
      <point x="752" y="139" type="curve" smooth="yes"/>
      <point x="496" y="139"/>
      <point x="369" y="275"/>
      <point x="369" y="514" type="curve" smooth="yes"/>
      <point x="369" y="1462" type="line"/>
      <point x="184" y="1462" type="line"/>
      <point x="184" y="520" type="line" smooth="yes"/>
      <point x="184" y="185"/>
      <point x="388" y="-20"/>
      <point x="741" y="-20" type="curve" smooth="yes"/>
      <point x="1098" y="-20"/>
      <point x="1311" y="183"/>
      <point x="1311" y="516" type="curve" smooth="yes"/>
      <point x="1311" y="1462" type="line"/>
      <point x="1128" y="1462" type="line"/>
    </contour>
  </outline>
</glyph>
<glyph name="V" format="2">
  <advance width="1229"/>
  <unicode hex="0056"/>
  <note>
    V
  </note>
  <outline>
    <contour>
      <point x="707" y="0" type="line"/>
      <point x="1229" y="1462" type="line"/>
      <point x="1034" y="1462" type="line"/>
      <point x="707" y="528" type="line" smooth="yes"/>
      <point x="662" y="397"/>
      <point x="631" y="289"/>
      <point x="614" y="205" type="curve"/>
      <point x="595" y="299"/>
      <point x="564" y="405"/>
      <point x="522" y="524" type="curve" smooth="yes"/>
      <point x="193" y="1462" type="line"/>
      <point x="0" y="1462" type="line"/>
      <point x="522" y="0" type="line"/>
    </contour>
  </outline>
</glyph>
<glyph name="W" format="2">
  <advance width="1905"/>
  <unicode hex="0057"/>
  <note>
    W
  </note>
  <outline>
    <contour>
      <point x="1686" y="1462" type="line"/>
      <point x="1460" y="571" type="line" smooth="yes"/>
      <point x="1423" y="430"/>
      <point x="1400" y="313"/>
      <point x="1389" y="221" type="curve"/>
      <point x="1370" y="340"/>
      <point x="1344" y="458"/>
      <point x="1309" y="573" type="curve" smooth="yes"/>
      <point x="1040" y="1462" type="line"/>
      <point x="850" y="1462" type="line"/>
      <point x="592" y="580" type="line" smooth="yes"/>
      <point x="555" y="450"/>
      <point x="529" y="330"/>
      <point x="514" y="221" type="curve"/>
      <point x="498" y="336"/>
      <point x="475" y="452"/>
      <point x="444" y="569" type="curve" smooth="yes"/>
      <point x="217" y="1462" type="line"/>
      <point x="25" y="1462" type="line"/>
      <point x="412" y="0" type="line"/>
      <point x="598" y="0" type="line"/>
      <point x="874" y="952" type="line" smooth="yes"/>
      <point x="910" y="1072"/>
      <point x="933" y="1170"/>
      <point x="944" y="1247" type="curve"/>
      <point x="951" y="1197"/>
      <point x="976" y="1101"/>
      <point x="1018" y="958" type="curve" smooth="yes"/>
      <point x="1303" y="0" type="line"/>
      <point x="1489" y="0" type="line"/>
      <point x="1878" y="1462" type="line"/>
    </contour>
  </outline>
</glyph>
<glyph name="Y" format="2">
  <advance width="1159"/>
  <unicode hex="0059"/>
  <note>
    Y
  </note>
  <outline>
    <contour>
      <point x="0" y="1462" type="line"/>
      <point x="487" y="559" type="line"/>
      <point x="487" y="0" type="line"/>
      <point x="672" y="0" type="line"/>
      <point x="672" y="567" type="line"/>
      <point x="1159" y="1462" type="line"/>
      <point x="961" y="1462" type="line"/>
      <point x="580" y="743" type="line"/>
      <point x="201" y="1462" type="line"/>
    </contour>
  </outline>
</glyph>
<glyph name="bracketleft" format="2">
  <advance width="674"/>
  <unicode hex="005B"/>
  <note>
    bracketleft
  </note>
  <outline>
    <contour>
      <point x="340" y="-176" type="line"/>
      <point x="340" y="1315" type="line"/>
      <point x="623" y="1315" type="line"/>
      <point x="623" y="1462" type="line"/>
      <point x="164" y="1462" type="line"/>
      <point x="164" y="-324" type="line"/>
      <point x="623" y="-324" type="line"/>
      <point x="623" y="-176" type="line"/>
    </contour>
  </outline>
</glyph>
<glyph name="backslash" format="2">
  <advance width="762"/>
  <unicode hex="005C"/>
  <note>
    backslash
  </note>
  <outline>
    <contour>
      <point x="565" y="0" type="line"/>
      <point x="743" y="0" type="line"/>
      <point x="197" y="1462" type="line"/>
      <point x="20" y="1462" type="line"/>
    </contour>
  </outline>
</glyph>
<glyph name="bracketright" format="2">
  <advance width="674"/>
  <unicode hex="005D"/>
  <note>
    bracketright
  </note>
  <outline>
    <contour>
      <point x="510" y="-324" type="line"/>
      <point x="510" y="1462" type="line"/>
      <point x="51" y="1462" type="line"/>
      <point x="51" y="1315" type="line"/>
      <point x="334" y="1315" type="line"/>
      <point x="334" y="-176" type="line"/>
      <point x="51" y="-176" type="line"/>
      <point x="51" y="-324" type="line"/>
    </contour>
  </outline>
</glyph>
<glyph name="underscore" format="2">
  <advance width="909"/>
  <unicode hex="005F"/>
  <note>
    underscore
  </note>
  <outline>
    <contour>
      <point x="-4" y="-184" type="line"/>
      <point x="-4" y="-315" type="line"/>
      <point x="913" y="-315" type="line"/>
      <point x="913" y="-184" type="line"/>
    </contour>
  </outline>
</glyph>
<glyph name="a" format="2">
  <advance width="1149"/>
  <unicode hex="0061"/>
  <note>
    a
  </note>
  <outline>
    <contour>
      <point x="983" y="748" type="line" smooth="yes"/>
      <point x="983" y="1004"/>
      <point x="855" y="1116"/>
      <point x="590" y="1116" type="curve" smooth="yes"/>
      <point x="462" y="1116"/>
      <point x="326" y="1081"/>
      <point x="215" y="1022" type="curve"/>
      <point x="270" y="887" type="line"/>
      <point x="361" y="930"/>
      <point x="464" y="971"/>
      <point x="580" y="971" type="curve" smooth="yes"/>
      <point x="739" y="971"/>
      <point x="807" y="894"/>
      <point x="807" y="727" type="curve" smooth="yes"/>
      <point x="807" y="662" type="line"/>
      <point x="621" y="655" type="line" smooth="yes"/>
      <point x="270" y="644"/>
      <point x="94" y="528"/>
      <point x="94" y="305" type="curve" smooth="yes"/>
      <point x="94" y="98"/>
      <point x="224" y="-20"/>
      <point x="440" y="-20" type="curve" smooth="yes"/>
      <point x="605" y="-20"/>
      <point x="700" y="19"/>
      <point x="809" y="156" type="curve"/>
      <point x="817" y="156" type="line"/>
      <point x="852" y="0" type="line"/>
      <point x="983" y="0" type="line"/>
    </contour>
    <contour>
      <point x="354" y="125"/>
      <point x="281" y="188"/>
      <point x="281" y="303" type="curve" smooth="yes"/>
      <point x="281" y="455"/>
      <point x="391" y="521"/>
      <point x="643" y="530" type="curve" smooth="yes"/>
      <point x="805" y="537" type="line"/>
      <point x="805" y="438" type="line" smooth="yes"/>
      <point x="805" y="238"/>
      <point x="682" y="125"/>
      <point x="481" y="125" type="curve" smooth="yes"/>
    </contour>
  </outline>
</glyph>
<glyph name="b" format="2">
  <advance width="1260"/>
  <unicode hex="0062"/>
  <note>
    b
  </note>
  <outline>
    <contour>
      <point x="541" y="1116"/>
      <point x="428" y="1061"/>
      <point x="354" y="952" type="curve"/>
      <point x="344" y="952" type="line"/>
      <point x="351" y="1027"/>
      <point x="354" y="1103"/>
      <point x="354" y="1178" type="curve" smooth="yes"/>
      <point x="354" y="1556" type="line"/>
      <point x="174" y="1556" type="line"/>
      <point x="174" y="0" type="line"/>
      <point x="303" y="0" type="line"/>
      <point x="307" y="13"/>
      <point x="319" y="59"/>
      <point x="340" y="139" type="curve"/>
      <point x="354" y="139" type="line"/>
      <point x="427" y="34"/>
      <point x="546" y="-20"/>
      <point x="694" y="-20" type="curve" smooth="yes"/>
      <point x="978" y="-20"/>
      <point x="1147" y="186"/>
      <point x="1147" y="549" type="curve" smooth="yes"/>
      <point x="1147" y="906"/>
      <point x="983" y="1116"/>
      <point x="694" y="1116" type="curve" smooth="yes"/>
    </contour>
    <contour>
      <point x="865" y="967"/>
      <point x="961" y="828"/>
      <point x="961" y="551" type="curve" smooth="yes"/>
      <point x="961" y="278"/>
      <point x="865" y="129"/>
      <point x="668" y="129" type="curve" smooth="yes"/>
      <point x="445" y="129"/>
      <point x="354" y="247"/>
      <point x="354" y="547" type="curve" smooth="yes"/>
      <point x="354" y="555" type="line" smooth="yes"/>
      <point x="354" y="854"/>
      <point x="443" y="967"/>
      <point x="664" y="967" type="curve" smooth="yes"/>
    </contour>
  </outline>
</glyph>
<glyph name="c" format="2">
  <advance width="983"/>
  <unicode hex="0063"/>
  <note>
    c
  </note>
  <outline>
    <contour>
      <point x="727" y="-20"/>
      <point x="821" y="0"/>
      <point x="897" y="39" type="curve"/>
      <point x="897" y="199" type="line"/>
      <point x="804" y="156"/>
      <point x="709" y="135"/>
      <point x="612" y="135" type="curve" smooth="yes"/>
      <point x="405" y="135"/>
      <point x="299" y="280"/>
      <point x="299" y="545" type="curve" smooth="yes"/>
      <point x="299" y="821"/>
      <point x="402" y="961"/>
      <point x="623" y="961" type="curve" smooth="yes"/>
      <point x="688" y="961"/>
      <point x="767" y="944"/>
      <point x="860" y="909" type="curve"/>
      <point x="915" y="1059" type="line"/>
      <point x="847" y="1094"/>
      <point x="734" y="1118"/>
      <point x="627" y="1118" type="curve" smooth="yes"/>
      <point x="298" y="1118"/>
      <point x="113" y="911"/>
      <point x="113" y="543" type="curve" smooth="yes"/>
      <point x="113" y="180"/>
      <point x="298" y="-20"/>
      <point x="614" y="-20" type="curve" smooth="yes"/>
    </contour>
  </outline>
</glyph>
<glyph name="d" format="2">
  <advance width="1260"/>
  <unicode hex="0064"/>
  <note>
    d
  </note>
  <outline>
    <contour>
      <point x="714" y="-20"/>
      <point x="828" y="36"/>
      <point x="905" y="147" type="curve"/>
      <point x="913" y="147" type="line"/>
      <point x="940" y="0" type="line"/>
      <point x="1085" y="0" type="line"/>
      <point x="1085" y="1556" type="line"/>
      <point x="905" y="1556" type="line"/>
      <point x="905" y="1118" type="line" smooth="yes"/>
      <point x="905" y="1090"/>
      <point x="914" y="983"/>
      <point x="918" y="956" type="curve"/>
      <point x="905" y="956" type="line"/>
      <point x="826" y="1064"/>
      <point x="712" y="1118"/>
      <point x="565" y="1118" type="curve" smooth="yes"/>
      <point x="278" y="1118"/>
      <point x="113" y="906"/>
      <point x="113" y="547" type="curve" smooth="yes"/>
      <point x="113" y="186"/>
      <point x="278" y="-20"/>
      <point x="563" y="-20" type="curve" smooth="yes"/>
    </contour>
    <contour>
      <point x="403" y="129"/>
      <point x="299" y="271"/>
      <point x="299" y="543" type="curve" smooth="yes"/>
      <point x="299" y="816"/>
      <point x="405" y="969"/>
      <point x="590" y="969" type="curve" smooth="yes"/>
      <point x="809" y="969"/>
      <point x="907" y="850"/>
      <point x="907" y="545" type="curve" smooth="yes"/>
      <point x="907" y="512" type="line" smooth="yes"/>
      <point x="907" y="240"/>
      <point x="811" y="129"/>
      <point x="592" y="129" type="curve" smooth="yes"/>
    </contour>
  </outline>
</glyph>
<glyph name="e" format="2">
  <advance width="1155"/>
  <unicode hex="0065"/>
  <note>
    e
  </note>
  <outline>
    <contour>
      <point x="786" y="-20"/>
      <point x="880" y="-1"/>
      <point x="1001" y="51" type="curve"/>
      <point x="1001" y="209" type="line"/>
      <point x="860" y="149"/>
      <point x="766" y="133"/>
      <point x="649" y="133" type="curve" smooth="yes"/>
      <point x="429" y="133"/>
      <point x="306" y="265"/>
      <point x="299" y="514" type="curve"/>
      <point x="1051" y="514" type="line"/>
      <point x="1051" y="623" type="line" smooth="yes"/>
      <point x="1051" y="927"/>
      <point x="874" y="1118"/>
      <point x="598" y="1118" type="curve" smooth="yes"/>
      <point x="301" y="1118"/>
      <point x="113" y="893"/>
      <point x="113" y="541" type="curve" smooth="yes"/>
      <point x="113" y="192"/>
      <point x="312" y="-20"/>
      <point x="641" y="-20" type="curve" smooth="yes"/>
    </contour>
    <contour>
      <point x="764" y="971"/>
      <point x="859" y="862"/>
      <point x="862" y="657" type="curve"/>
      <point x="303" y="657" type="line"/>
      <point x="322" y="854"/>
      <point x="424" y="971"/>
      <point x="596" y="971" type="curve" smooth="yes"/>
    </contour>
  </outline>
</glyph>
<glyph name="f" format="2">
  <advance width="705"/>
  <unicode hex="0066"/>
  <note>
    f
  </note>
  <outline>
    <contour>
      <point x="403" y="1098" type="line"/>
      <point x="403" y="1169" type="line" smooth="yes"/>
      <point x="403" y="1342"/>
      <point x="461" y="1419"/>
      <point x="582" y="1419" type="curve" smooth="yes"/>
      <point x="629" y="1419"/>
      <point x="683" y="1409"/>
      <point x="745" y="1389" type="curve"/>
      <point x="793" y="1530" type="line"/>
      <point x="721" y="1555"/>
      <point x="650" y="1567"/>
      <point x="580" y="1567" type="curve" smooth="yes"/>
      <point x="337" y="1567"/>
      <point x="223" y="1434"/>
      <point x="223" y="1167" type="curve" smooth="yes"/>
      <point x="223" y="1104" type="line"/>
      <point x="31" y="1042" type="line"/>
      <point x="31" y="958" type="line"/>
      <point x="223" y="958" type="line"/>
      <point x="223" y="0" type="line"/>
      <point x="403" y="0" type="line"/>
      <point x="403" y="958" type="line"/>
      <point x="680" y="958" type="line"/>
      <point x="680" y="1098" type="line"/>
    </contour>
  </outline>
</glyph>
<glyph name="g" format="2">
  <advance width="1260"/>
  <unicode hex="0067"/>
  <note>
    g
  </note>
  <outline>
    <contour>
      <point x="397" y="127"/>
      <point x="299" y="273"/>
      <point x="299" y="545" type="curve" smooth="yes"/>
      <point x="299" y="816"/>
      <point x="404" y="967"/>
      <point x="588" y="967" type="curve" smooth="yes"/>
      <point x="813" y="967"/>
      <point x="909" y="840"/>
      <point x="909" y="547" type="curve" smooth="yes"/>
      <point x="909" y="504" type="line" smooth="yes"/>
      <point x="909" y="240"/>
      <point x="813" y="127"/>
      <point x="592" y="127" type="curve" smooth="yes"/>
    </contour>
    <contour>
      <point x="907" y="-226"/>
      <point x="791" y="-342"/>
      <point x="604" y="-342" type="curve" smooth="yes"/>
      <point x="441" y="-342"/>
      <point x="306" y="-313"/>
      <point x="199" y="-256" type="curve"/>
      <point x="199" y="-422" type="line"/>
      <point x="302" y="-469"/>
      <point x="434" y="-492"/>
      <point x="594" y="-492" type="curve" smooth="yes"/>
      <point x="930" y="-492"/>
      <point x="1085" y="-333"/>
      <point x="1085" y="-18" type="curve" smooth="yes"/>
      <point x="1085" y="1098" type="line"/>
      <point x="942" y="1098" type="line"/>
      <point x="918" y="952" type="line"/>
      <point x="907" y="952" type="line"/>
      <point x="826" y="1063"/>
      <point x="712" y="1118"/>
      <point x="563" y="1118" type="curve" smooth="yes"/>
      <point x="284" y="1118"/>
      <point x="113" y="900"/>
      <point x="113" y="547" type="curve" smooth="yes"/>
      <point x="113" y="187"/>
      <point x="281" y="-20"/>
      <point x="565" y="-20" type="curve" smooth="yes"/>
      <point x="718" y="-20"/>
      <point x="831" y="35"/>
      <point x="905" y="145" type="curve"/>
      <point x="913" y="145" type="line"/>
      <point x="907" y="10" type="line"/>
      <point x="907" y="-33" type="line" smooth="yes"/>
    </contour>
  </outline>
</glyph>
<glyph name="h" format="2">
  <advance width="1266"/>
  <unicode hex="0068"/>
  <note>
    h
  </note>
  <outline>
    <contour>
      <point x="1100" y="715" type="line" smooth="yes"/>
      <point x="1100" y="995"/>
      <point x="965" y="1116"/>
      <point x="698" y="1116" type="curve" smooth="yes"/>
      <point x="547" y="1116"/>
      <point x="421" y="1053"/>
      <point x="356" y="946" type="curve"/>
      <point x="344" y="946" type="line"/>
      <point x="351" y="989"/>
      <point x="354" y="1040"/>
      <point x="354" y="1100" type="curve" smooth="yes"/>
      <point x="354" y="1556" type="line"/>
      <point x="174" y="1556" type="line"/>
      <point x="174" y="0" type="line"/>
      <point x="354" y="0" type="line"/>
      <point x="354" y="567" type="line" smooth="yes"/>
      <point x="354" y="852"/>
      <point x="453" y="967"/>
      <point x="676" y="967" type="curve" smooth="yes"/>
      <point x="845" y="967"/>
      <point x="922" y="881"/>
      <point x="922" y="702" type="curve" smooth="yes"/>
      <point x="922" y="0" type="line"/>
      <point x="1100" y="0" type="line"/>
    </contour>
  </outline>
</glyph>
<glyph name="i" format="2">
  <advance width="528"/>
  <unicode hex="0069"/>
  <note>
    i
  </note>
  <outline>
    <contour>
      <point x="174" y="1098" type="line"/>
      <point x="174" y="0" type="line"/>
      <point x="354" y="0" type="line"/>
      <point x="354" y="1098" type="line"/>
    </contour>
    <contour>
      <point x="160" y="1316"/>
      <point x="206" y="1280"/>
      <point x="266" y="1280" type="curve" smooth="yes"/>
      <point x="322" y="1280"/>
      <point x="371" y="1316"/>
      <point x="371" y="1395" type="curve" smooth="yes"/>
      <point x="371" y="1475"/>
      <point x="322" y="1509"/>
      <point x="266" y="1509" type="curve" smooth="yes"/>
      <point x="206" y="1509"/>
      <point x="160" y="1475"/>
      <point x="160" y="1395" type="curve" smooth="yes"/>
    </contour>
  </outline>
</glyph>
<glyph name="j" format="2">
  <advance width="528"/>
  <unicode hex="006A"/>
  <note>
    j
  </note>
  <outline>
    <contour>
      <point x="248" y="-492"/>
      <point x="354" y="-383"/>
      <point x="354" y="-164" type="curve" smooth="yes"/>
      <point x="354" y="1098" type="line"/>
      <point x="174" y="1098" type="line"/>
      <point x="174" y="-170" type="line" smooth="yes"/>
      <point x="174" y="-286"/>
      <point x="127" y="-342"/>
      <point x="23" y="-342" type="curve" smooth="yes"/>
      <point x="-22" y="-342"/>
      <point x="-67" y="-335"/>
      <point x="-113" y="-322" type="curve"/>
      <point x="-113" y="-467" type="line"/>
      <point x="-70" y="-484"/>
      <point x="-18" y="-492"/>
      <point x="45" y="-492" type="curve" smooth="yes"/>
    </contour>
    <contour>
      <point x="160" y="1316"/>
      <point x="206" y="1280"/>
      <point x="266" y="1280" type="curve" smooth="yes"/>
      <point x="322" y="1280"/>
      <point x="371" y="1316"/>
      <point x="371" y="1395" type="curve" smooth="yes"/>
      <point x="371" y="1475"/>
      <point x="322" y="1509"/>
      <point x="266" y="1509" type="curve" smooth="yes"/>
      <point x="206" y="1509"/>
      <point x="160" y="1475"/>
      <point x="160" y="1395" type="curve" smooth="yes"/>
    </contour>
  </outline>
</glyph>
<glyph name="k" format="2">
  <advance width="1094"/>
  <unicode hex="006B"/>
  <note>
    k
  </note>
  <outline>
    <contour>
      <point x="352" y="743" type="line"/>
      <point x="352" y="1556" type="line"/>
      <point x="174" y="1556" type="line"/>
      <point x="174" y="0" type="line"/>
      <point x="352" y="0" type="line"/>
      <point x="352" y="403" type="line"/>
      <point x="477" y="512" type="line"/>
      <point x="858" y="0" type="line"/>
      <point x="1075" y="0" type="line"/>
      <point x="600" y="629" type="line"/>
      <point x="1044" y="1098" type="line"/>
      <point x="834" y="1098" type="line"/>
      <point x="483" y="727" type="line"/>
      <point x="413" y="643" type="line"/>
      <point x="352" y="565" type="line"/>
      <point x="344" y="565" type="line"/>
    </contour>
  </outline>
</glyph>
<glyph name="l" format="2">
  <advance width="528"/>
  <unicode hex="006C"/>
  <note>
    l
  </note>
  <outline>
    <contour>
      <point x="174" y="1556" type="line"/>
      <point x="174" y="0" type="line"/>
      <point x="354" y="0" type="line"/>
      <point x="354" y="1556" type="line"/>
    </contour>
  </outline>
</glyph>
<glyph name="m" format="2">
  <advance width="1915"/>
  <unicode hex="006D"/>
  <note>
    m
  </note>
  <outline>
    <contour>
      <point x="1749" y="715" type="line" smooth="yes"/>
      <point x="1749" y="996"/>
      <point x="1626" y="1118"/>
      <point x="1378" y="1118" type="curve" smooth="yes"/>
      <point x="1223" y="1118"/>
      <point x="1097" y="1051"/>
      <point x="1026" y="934" type="curve"/>
      <point x="1016" y="934" type="line"/>
      <point x="964" y="1057"/>
      <point x="852" y="1118"/>
      <point x="680" y="1118" type="curve" smooth="yes"/>
      <point x="539" y="1118"/>
      <point x="419" y="1055"/>
      <point x="356" y="948" type="curve"/>
      <point x="346" y="948" type="line"/>
      <point x="319" y="1098" type="line"/>
      <point x="174" y="1098" type="line"/>
      <point x="174" y="0" type="line"/>
      <point x="354" y="0" type="line"/>
      <point x="354" y="569" type="line" smooth="yes"/>
      <point x="354" y="852"/>
      <point x="444" y="967"/>
      <point x="647" y="967" type="curve" smooth="yes"/>
      <point x="802" y="967"/>
      <point x="872" y="880"/>
      <point x="872" y="707" type="curve" smooth="yes"/>
      <point x="872" y="0" type="line"/>
      <point x="1051" y="0" type="line"/>
      <point x="1051" y="606" type="line" smooth="yes"/>
      <point x="1051" y="850"/>
      <point x="1144" y="967"/>
      <point x="1348" y="967" type="curve" smooth="yes"/>
      <point x="1497" y="967"/>
      <point x="1571" y="880"/>
      <point x="1571" y="707" type="curve" smooth="yes"/>
      <point x="1571" y="0" type="line"/>
      <point x="1749" y="0" type="line"/>
    </contour>
  </outline>
</glyph>
<glyph name="n" format="2">
  <advance width="1266"/>
  <unicode hex="006E"/>
  <note>
    n
  </note>
  <outline>
    <contour>
      <point x="1100" y="715" type="line" smooth="yes"/>
      <point x="1100" y="991"/>
      <point x="971" y="1118"/>
      <point x="702" y="1118" type="curve" smooth="yes"/>
      <point x="554" y="1118"/>
      <point x="424" y="1056"/>
      <point x="356" y="948" type="curve"/>
      <point x="346" y="948" type="line"/>
      <point x="319" y="1098" type="line"/>
      <point x="174" y="1098" type="line"/>
      <point x="174" y="0" type="line"/>
      <point x="354" y="0" type="line"/>
      <point x="354" y="569" type="line" smooth="yes"/>
      <point x="354" y="850"/>
      <point x="451" y="967"/>
      <point x="676" y="967" type="curve" smooth="yes"/>
      <point x="845" y="967"/>
      <point x="922" y="881"/>
      <point x="922" y="702" type="curve" smooth="yes"/>
      <point x="922" y="0" type="line"/>
      <point x="1100" y="0" type="line"/>
    </contour>
  </outline>
</glyph>
<glyph name="o" format="2">
  <advance width="1239"/>
  <unicode hex="006F"/>
  <note>
    o
  </note>
  <outline>
    <contour>
      <point x="1128" y="900"/>
      <point x="932" y="1118"/>
      <point x="623" y="1118" type="curve" smooth="yes"/>
      <point x="300" y="1118"/>
      <point x="113" y="908"/>
      <point x="113" y="551" type="curve" smooth="yes"/>
      <point x="113" y="436"/>
      <point x="134" y="336"/>
      <point x="175" y="249" type="curve" smooth="yes"/>
      <point x="258" y="76"/>
      <point x="417" y="-20"/>
      <point x="616" y="-20" type="curve" smooth="yes"/>
      <point x="936" y="-20"/>
      <point x="1128" y="192"/>
      <point x="1128" y="551" type="curve" smooth="yes"/>
    </contour>
    <contour>
      <point x="299" y="828"/>
      <point x="405" y="967"/>
      <point x="618" y="967" type="curve" smooth="yes"/>
      <point x="830" y="967"/>
      <point x="942" y="827"/>
      <point x="942" y="551" type="curve" smooth="yes"/>
      <point x="942" y="275"/>
      <point x="830" y="129"/>
      <point x="621" y="129" type="curve" smooth="yes"/>
      <point x="409" y="129"/>
      <point x="299" y="275"/>
      <point x="299" y="551" type="curve" smooth="yes"/>
    </contour>
  </outline>
</glyph>
<glyph name="p" format="2">
  <advance width="1260"/>
  <unicode hex="0070"/>
  <note>
    p
  </note>
  <outline>
    <contour>
      <point x="981" y="-20"/>
      <point x="1147" y="192"/>
      <point x="1147" y="551" type="curve" smooth="yes"/>
      <point x="1147" y="911"/>
      <point x="981" y="1118"/>
      <point x="696" y="1118" type="curve" smooth="yes"/>
      <point x="549" y="1118"/>
      <point x="439" y="1068"/>
      <point x="354" y="948" type="curve"/>
      <point x="346" y="948" type="line"/>
      <point x="322" y="1098" type="line"/>
      <point x="174" y="1098" type="line"/>
      <point x="174" y="-492" type="line"/>
      <point x="354" y="-492" type="line"/>
      <point x="354" y="-41" type="line" smooth="yes"/>
      <point x="354" y="0"/>
      <point x="351" y="46"/>
      <point x="346" y="98" type="curve" smooth="yes"/>
      <point x="342" y="139" type="line"/>
      <point x="354" y="139" type="line"/>
      <point x="433" y="33"/>
      <point x="547" y="-20"/>
      <point x="694" y="-20" type="curve" smooth="yes"/>
    </contour>
    <contour>
      <point x="853" y="967"/>
      <point x="961" y="821"/>
      <point x="961" y="553" type="curve" smooth="yes"/>
      <point x="961" y="286"/>
      <point x="852" y="129"/>
      <point x="668" y="129" type="curve" smooth="yes"/>
      <point x="447" y="129"/>
      <point x="354" y="254"/>
      <point x="354" y="551" type="curve" smooth="yes"/>
      <point x="354" y="586" type="line" smooth="yes"/>
      <point x="357" y="849"/>
      <point x="447" y="967"/>
      <point x="664" y="967" type="curve" smooth="yes"/>
    </contour>
  </outline>
</glyph>
<glyph name="q" format="2">
  <advance width="1260"/>
  <unicode hex="0071"/>
  <note>
    q
  </note>
  <outline>
    <contour>
      <point x="399" y="129"/>
      <point x="299" y="275"/>
      <point x="299" y="543" type="curve" smooth="yes"/>
      <point x="299" y="815"/>
      <point x="402" y="969"/>
      <point x="590" y="969" type="curve" smooth="yes"/>
      <point x="810" y="969"/>
      <point x="907" y="848"/>
      <point x="907" y="545" type="curve" smooth="yes"/>
      <point x="907" y="508" type="line" smooth="yes"/>
      <point x="902" y="237"/>
      <point x="809" y="129"/>
      <point x="594" y="129" type="curve" smooth="yes"/>
    </contour>
    <contour>
      <point x="712" y="-20"/>
      <point x="826" y="36"/>
      <point x="903" y="147" type="curve"/>
      <point x="915" y="147" type="line"/>
      <point x="908" y="107"/>
      <point x="905" y="50"/>
      <point x="905" y="-23" type="curve" smooth="yes"/>
      <point x="905" y="-492" type="line"/>
      <point x="1085" y="-492" type="line"/>
      <point x="1085" y="1098" type="line"/>
      <point x="942" y="1098" type="line"/>
      <point x="915" y="948" type="line"/>
      <point x="907" y="948" type="line"/>
      <point x="829" y="1061"/>
      <point x="715" y="1118"/>
      <point x="565" y="1118" type="curve" smooth="yes"/>
      <point x="281" y="1118"/>
      <point x="113" y="904"/>
      <point x="113" y="547" type="curve" smooth="yes"/>
      <point x="113" y="191"/>
      <point x="276" y="-20"/>
      <point x="559" y="-20" type="curve" smooth="yes"/>
    </contour>
  </outline>
</glyph>
<glyph name="r" format="2">
  <advance width="846"/>
  <unicode hex="0072"/>
  <note>
    r
  </note>
  <outline>
    <contour>
      <point x="551" y="1118"/>
      <point x="434" y="1042"/>
      <point x="350" y="897" type="curve"/>
      <point x="342" y="897" type="line"/>
      <point x="322" y="1098" type="line"/>
      <point x="174" y="1098" type="line"/>
      <point x="174" y="0" type="line"/>
      <point x="354" y="0" type="line"/>
      <point x="354" y="586" type="line" smooth="yes"/>
      <point x="354" y="655"/>
      <point x="368" y="717"/>
      <point x="396" y="774" type="curve" smooth="yes"/>
      <point x="452" y="886"/>
      <point x="558" y="954"/>
      <point x="674" y="954" type="curve" smooth="yes"/>
      <point x="713" y="954"/>
      <point x="752" y="949"/>
      <point x="793" y="940" type="curve"/>
      <point x="815" y="1106" type="line"/>
      <point x="778" y="1114"/>
      <point x="735" y="1118"/>
      <point x="686" y="1118" type="curve" smooth="yes"/>
    </contour>
  </outline>
</glyph>
<glyph name="s" format="2">
  <advance width="981"/>
  <unicode hex="0073"/>
  <note>
    s
  </note>
  <outline>
    <contour>
      <point x="889" y="354"/>
      <point x="879" y="398"/>
      <point x="858" y="435" type="curve" smooth="yes"/>
      <point x="817" y="508"/>
      <point x="742" y="561"/>
      <point x="559" y="629" type="curve" smooth="yes"/>
      <point x="437" y="676"/>
      <point x="359" y="712"/>
      <point x="326" y="739" type="curve" smooth="yes"/>
      <point x="293" y="765"/>
      <point x="276" y="798"/>
      <point x="276" y="838" type="curve" smooth="yes"/>
      <point x="276" y="921"/>
      <point x="355" y="971"/>
      <point x="504" y="971" type="curve" smooth="yes"/>
      <point x="593" y="971"/>
      <point x="694" y="948"/>
      <point x="805" y="901" type="curve"/>
      <point x="866" y="1044" type="line"/>
      <point x="757" y="1093"/>
      <point x="641" y="1118"/>
      <point x="516" y="1118" type="curve" smooth="yes"/>
      <point x="260" y="1118"/>
      <point x="104" y="1007"/>
      <point x="104" y="827" type="curve" smooth="yes"/>
      <point x="104" y="726"/>
      <point x="142" y="659"/>
      <point x="226" y="603" type="curve" smooth="yes"/>
      <point x="268" y="574"/>
      <point x="341" y="540"/>
      <point x="444" y="500" type="curve" smooth="yes"/>
      <point x="545" y="461"/>
      <point x="616" y="427"/>
      <point x="656" y="397" type="curve" smooth="yes"/>
      <point x="695" y="367"/>
      <point x="715" y="330"/>
      <point x="715" y="287" type="curve" smooth="yes"/>
      <point x="715" y="188"/>
      <point x="636" y="125"/>
      <point x="455" y="125" type="curve" smooth="yes"/>
      <point x="343" y="125"/>
      <point x="227" y="154"/>
      <point x="106" y="213" type="curve"/>
      <point x="106" y="49" type="line"/>
      <point x="191" y="3"/>
      <point x="306" y="-20"/>
      <point x="451" y="-20" type="curve" smooth="yes"/>
      <point x="728" y="-20"/>
      <point x="889" y="98"/>
      <point x="889" y="303" type="curve" smooth="yes"/>
    </contour>
  </outline>
</glyph>
<glyph name="t" format="2">
  <advance width="739"/>
  <unicode hex="0074"/>
  <note>
    t
  </note>
  <outline>
    <contour>
      <point x="433" y="127"/>
      <point x="369" y="197"/>
      <point x="369" y="324" type="curve" smooth="yes"/>
      <point x="369" y="958" type="line"/>
      <point x="686" y="958" type="line"/>
      <point x="686" y="1098" type="line"/>
      <point x="369" y="1098" type="line"/>
      <point x="369" y="1350" type="line"/>
      <point x="262" y="1350" type="line"/>
      <point x="190" y="1116" type="line"/>
      <point x="33" y="1044" type="line"/>
      <point x="33" y="958" type="line"/>
      <point x="188" y="958" type="line"/>
      <point x="188" y="319" type="line" smooth="yes"/>
      <point x="188" y="93"/>
      <point x="295" y="-20"/>
      <point x="510" y="-20" type="curve" smooth="yes"/>
      <point x="582" y="-20"/>
      <point x="661" y="-3"/>
      <point x="694" y="12" type="curve"/>
      <point x="694" y="150" type="line"/>
      <point x="662" y="138"/>
      <point x="588" y="127"/>
      <point x="541" y="127" type="curve" smooth="yes"/>
    </contour>
  </outline>
</glyph>
<glyph name="u" format="2">
  <advance width="1266"/>
  <unicode hex="0075"/>
  <note>
    u
  </note>
  <outline>
    <contour>
      <point x="162" y="379" type="line" smooth="yes"/>
      <point x="162" y="100"/>
      <point x="297" y="-20"/>
      <point x="561" y="-20" type="curve" smooth="yes"/>
      <point x="720" y="-20"/>
      <point x="844" y="40"/>
      <point x="909" y="145" type="curve"/>
      <point x="918" y="145" type="line"/>
      <point x="944" y="0" type="line"/>
      <point x="1092" y="0" type="line"/>
      <point x="1092" y="1098" type="line"/>
      <point x="911" y="1098" type="line"/>
      <point x="911" y="526" type="line" smooth="yes"/>
      <point x="911" y="247"/>
      <point x="813" y="129"/>
      <point x="588" y="129" type="curve" smooth="yes"/>
      <point x="421" y="129"/>
      <point x="344" y="214"/>
      <point x="344" y="391" type="curve" smooth="yes"/>
      <point x="344" y="1098" type="line"/>
      <point x="162" y="1098" type="line"/>
    </contour>
  </outline>
</glyph>
<glyph name="v" format="2">
  <advance width="1040"/>
  <unicode hex="0076"/>
  <note>
    v
  </note>
  <outline>
    <contour>
      <point x="1040" y="1098" type="line"/>
      <point x="848" y="1098" type="line"/>
      <point x="614" y="451" type="line" smooth="yes"/>
      <point x="569" y="314"/>
      <point x="544" y="239"/>
      <point x="540" y="226" type="curve" smooth="yes"/>
      <point x="532" y="200"/>
      <point x="526" y="177"/>
      <point x="522" y="160" type="curve"/>
      <point x="514" y="160" type="line"/>
      <point x="501" y="224"/>
      <point x="472" y="321"/>
      <point x="426" y="451" type="curve" smooth="yes"/>
      <point x="193" y="1098" type="line"/>
      <point x="0" y="1098" type="line"/>
      <point x="416" y="0" type="line"/>
      <point x="623" y="0" type="line"/>
    </contour>
  </outline>
</glyph>
<glyph name="w" format="2">
  <advance width="1610"/>
  <unicode hex="0077"/>
  <note>
    w
  </note>
  <outline>
    <contour>
      <point x="1587" y="1098" type="line"/>
      <point x="1403" y="1098" type="line"/>
      <point x="1249" y="512" type="line" smooth="yes"/>
      <point x="1206" y="345"/>
      <point x="1182" y="237"/>
      <point x="1176" y="186" type="curve"/>
      <point x="1167" y="186" type="line"/>
      <point x="1164" y="205"/>
      <point x="1160" y="227"/>
      <point x="1155" y="252" type="curve" smooth="yes"/>
      <point x="1144" y="300"/>
      <point x="1131" y="352"/>
      <point x="1116" y="405" type="curve" smooth="yes"/>
      <point x="1108" y="431"/>
      <point x="1101" y="456"/>
      <point x="1094" y="479" type="curve" smooth="yes"/>
      <point x="905" y="1098" type="line"/>
      <point x="709" y="1098" type="line"/>
      <point x="514" y="479" type="line" smooth="yes"/>
      <point x="495" y="419"/>
      <point x="475" y="341"/>
      <point x="454" y="246" type="curve" smooth="yes"/>
      <point x="440" y="184" type="line"/>
      <point x="432" y="184" type="line"/>
      <point x="425" y="242"/>
      <point x="404" y="341"/>
      <point x="368" y="482" type="curve" smooth="yes"/>
      <point x="331" y="623"/>
      <point x="278" y="828"/>
      <point x="209" y="1098" type="curve"/>
      <point x="23" y="1098" type="line"/>
      <point x="324" y="0" type="line"/>
      <point x="528" y="0" type="line"/>
      <point x="725" y="616" type="line" smooth="yes"/>
      <point x="746" y="681"/>
      <point x="771" y="779"/>
      <point x="799" y="909" type="curve"/>
      <point x="807" y="909" type="line"/>
      <point x="840" y="766"/>
      <point x="866" y="669"/>
      <point x="883" y="618" type="curve" smooth="yes"/>
      <point x="1071" y="0" type="line"/>
      <point x="1282" y="0" type="line"/>
    </contour>
  </outline>
</glyph>
<glyph name="x" format="2">
  <advance width="1083"/>
  <unicode hex="0078"/>
  <note>
    x
  </note>
  <outline>
    <contour>
      <point x="240" y="0" type="line"/>
      <point x="543" y="438" type="line"/>
      <point x="842" y="0" type="line"/>
      <point x="1047" y="0" type="line"/>
      <point x="647" y="561" type="line"/>
      <point x="1026" y="1098" type="line"/>
      <point x="823" y="1098" type="line"/>
      <point x="543" y="684" type="line"/>
      <point x="260" y="1098" type="line"/>
      <point x="55" y="1098" type="line"/>
      <point x="434" y="561" type="line"/>
      <point x="37" y="0" type="line"/>
    </contour>
  </outline>
</glyph>
<glyph name="y" format="2">
  <advance width="1044"/>
  <unicode hex="0079"/>
  <note>
    y
  </note>
  <outline>
    <contour>
      <point x="387" y="-150" type="line" smooth="yes"/>
      <point x="336" y="-282"/>
      <point x="258" y="-344"/>
      <point x="143" y="-344" type="curve" smooth="yes"/>
      <point x="96" y="-344"/>
      <point x="56" y="-340"/>
      <point x="23" y="-332" type="curve"/>
      <point x="23" y="-475" type="line"/>
      <point x="72" y="-486"/>
      <point x="122" y="-492"/>
      <point x="172" y="-492" type="curve" smooth="yes"/>
      <point x="359" y="-492"/>
      <point x="479" y="-395"/>
      <point x="571" y="-152" type="curve" smooth="yes"/>
      <point x="1044" y="1098" type="line"/>
      <point x="850" y="1098" type="line"/>
      <point x="627" y="475" type="line" smooth="yes"/>
      <point x="598" y="394"/>
      <point x="544" y="223"/>
      <point x="532" y="174" type="curve"/>
      <point x="524" y="174" type="line"/>
      <point x="513" y="237"/>
      <point x="482" y="337"/>
      <point x="432" y="473" type="curve" smooth="yes"/>
      <point x="195" y="1098" type="line"/>
      <point x="2" y="1098" type="line"/>
      <point x="444" y="-4" type="line"/>
    </contour>
  </outline>
</glyph>
<glyph name="z" format="2">
  <advance width="963"/>
  <unicode hex="007A"/>
  <note>
    z
  </note>
  <outline>
    <contour>
      <point x="287" y="139" type="line"/>
      <point x="868" y="963" type="line"/>
      <point x="868" y="1098" type="line"/>
      <point x="115" y="1098" type="line"/>
      <point x="115" y="958" type="line"/>
      <point x="670" y="958" type="line"/>
      <point x="80" y="119" type="line"/>
      <point x="80" y="0" type="line"/>
      <point x="883" y="0" type="line"/>
      <point x="883" y="139" type="line"/>
    </contour>
  </outline>
</glyph>
<glyph name="braceleft" format="2">
  <advance width="778"/>
  <unicode hex="007B"/>
  <note>
    braceleft
  </note>
  <outline>
    <contour>
      <point x="218" y="496"/>
      <point x="307" y="442"/>
      <point x="307" y="303" type="curve" smooth="yes"/>
      <point x="307" y="2" type="line" smooth="yes"/>
      <point x="307" y="-206"/>
      <point x="446" y="-321"/>
      <point x="713" y="-324" type="curve"/>
      <point x="713" y="-176" type="line"/>
      <point x="566" y="-173"/>
      <point x="485" y="-119"/>
      <point x="485" y="14" type="curve" smooth="yes"/>
      <point x="485" y="315" type="line" smooth="yes"/>
      <point x="485" y="456"/>
      <point x="415" y="538"/>
      <point x="262" y="565" type="curve"/>
      <point x="262" y="578" type="line"/>
      <point x="411" y="604"/>
      <point x="485" y="687"/>
      <point x="485" y="827" type="curve" smooth="yes"/>
      <point x="485" y="1122" type="line" smooth="yes"/>
      <point x="485" y="1249"/>
      <point x="558" y="1310"/>
      <point x="713" y="1315" type="curve"/>
      <point x="713" y="1462" type="line"/>
      <point x="458" y="1462"/>
      <point x="307" y="1346"/>
      <point x="307" y="1139" type="curve" smooth="yes"/>
      <point x="307" y="836" type="line" smooth="yes"/>
      <point x="307" y="708"/>
      <point x="233" y="648"/>
      <point x="57" y="645" type="curve"/>
      <point x="57" y="496" type="line"/>
    </contour>
  </outline>
</glyph>
<glyph name="braceright" format="2">
  <advance width="778"/>
  <unicode hex="007D"/>
  <note>
    braceright
  </note>
  <outline>
    <contour>
      <point x="558" y="645"/>
      <point x="471" y="698"/>
      <point x="471" y="838" type="curve" smooth="yes"/>
      <point x="471" y="1137" type="line" smooth="yes"/>
      <point x="471" y="1348"/>
      <point x="330" y="1459"/>
      <point x="66" y="1462" type="curve"/>
      <point x="66" y="1315" type="line"/>
      <point x="211" y="1312"/>
      <point x="293" y="1257"/>
      <point x="293" y="1124" type="curve" smooth="yes"/>
      <point x="293" y="825" type="line" smooth="yes"/>
      <point x="293" y="684"/>
      <point x="367" y="601"/>
      <point x="516" y="575" type="curve"/>
      <point x="516" y="563" type="line"/>
      <point x="367" y="537"/>
      <point x="293" y="454"/>
      <point x="293" y="313" type="curve" smooth="yes"/>
      <point x="293" y="16" type="line" smooth="yes"/>
      <point x="293" y="-109"/>
      <point x="217" y="-173"/>
      <point x="66" y="-176" type="curve"/>
      <point x="66" y="-324" type="line"/>
      <point x="322" y="-324"/>
      <point x="471" y="-205"/>
      <point x="471" y="0" type="curve" smooth="yes"/>
      <point x="471" y="305" type="line" smooth="yes"/>
      <point x="471" y="442"/>
      <point x="558" y="493"/>
      <point x="721" y="496" type="curve"/>
      <point x="721" y="645" type="line"/>
    </contour>
  </outline>
</glyph>
<glyph name="exclamdown" format="2">
  <advance width="551"/>
  <unicode hex="00A1"/>
  <note>
    exclamdown
  </note>
  <outline>
    <contour>
      <point x="383" y="-373" type="line"/>
      <point x="332" y="676" type="line"/>
      <point x="213" y="676" type="line"/>
      <point x="162" y="-373" type="line"/>
    </contour>
    <contour>
      <point x="401" y="1068"/>
      <point x="353" y="1118"/>
      <point x="274" y="1118" type="curve" smooth="yes"/>
      <point x="195" y="1118"/>
      <point x="147" y="1067"/>
      <point x="147" y="979" type="curve" smooth="yes"/>
      <point x="147" y="888"/>
      <point x="191" y="842"/>
      <point x="274" y="842" type="curve" smooth="yes"/>
      <point x="357" y="842"/>
      <point x="401" y="890"/>
      <point x="401" y="979" type="curve" smooth="yes"/>
    </contour>
  </outline>
</glyph>
<glyph name="guillemotleft" format="2">
  <advance width="1042"/>
  <unicode hex="00AB"/>
  <note>
    guillemotleft
  </note>
  <outline>
    <contour>
      <point x="426" y="115" type="line"/>
      <point x="555" y="190" type="line"/>
      <point x="268" y="541" type="line"/>
      <point x="555" y="891" type="line"/>
      <point x="426" y="965" type="line"/>
      <point x="82" y="553" type="line"/>
      <point x="82" y="526" type="line"/>
    </contour>
    <contour>
      <point x="836" y="115" type="line"/>
      <point x="963" y="190" type="line"/>
      <point x="676" y="541" type="line"/>
      <point x="963" y="891" type="line"/>
      <point x="836" y="965" type="line"/>
      <point x="487" y="553" type="line"/>
      <point x="487" y="526" type="line"/>
    </contour>
  </outline>
</glyph>
<glyph name="periodcentered" format="2">
  <advance width="549"/>
  <unicode hex="00B7"/>
  <note>
    periodcentered
  </note>
  <outline>
    <contour>
      <point x="147" y="636"/>
      <point x="193" y="584"/>
      <point x="272" y="584" type="curve" smooth="yes"/>
      <point x="353" y="584"/>
      <point x="401" y="638"/>
      <point x="401" y="723" type="curve" smooth="yes"/>
      <point x="401" y="808"/>
      <point x="355" y="862"/>
      <point x="272" y="862" type="curve" smooth="yes"/>
      <point x="192" y="862"/>
      <point x="147" y="810"/>
      <point x="147" y="723" type="curve" smooth="yes"/>
    </contour>
  </outline>
</glyph>
<glyph name="guillemotright" format="2">
  <advance width="1042"/>
  <unicode hex="00BB"/>
  <note>
    guillemotright
  </note>
  <outline>
    <contour>
      <point x="612" y="965" type="line"/>
      <point x="485" y="891" type="line"/>
      <point x="772" y="541" type="line"/>
      <point x="485" y="190" type="line"/>
      <point x="612" y="115" type="line"/>
      <point x="961" y="526" type="line"/>
      <point x="961" y="553" type="line"/>
    </contour>
    <contour>
      <point x="207" y="965" type="line"/>
      <point x="80" y="891" type="line"/>
      <point x="367" y="541" type="line"/>
      <point x="80" y="190" type="line"/>
      <point x="207" y="115" type="line"/>
      <point x="553" y="526" type="line"/>
      <point x="553" y="553" type="line"/>
    </contour>
  </outline>
</glyph>
<glyph name="questiondown" format="2">
  <advance width="889"/>
  <unicode hex="00BF"/>
  <note>
    questiondown
  </note>
  <outline>
    <contour>
      <point x="457" y="643" type="line" smooth="yes"/>
      <point x="457" y="526"/>
      <point x="430" y="474"/>
      <point x="293" y="354" type="curve" smooth="yes"/>
      <point x="213" y="285"/>
      <point x="159" y="234"/>
      <point x="132" y="200" type="curve" smooth="yes"/>
      <point x="77" y="132"/>
      <point x="51" y="60"/>
      <point x="51" y="-37" type="curve" smooth="yes"/>
      <point x="51" y="-262"/>
      <point x="206" y="-393"/>
      <point x="465" y="-393" type="curve" smooth="yes"/>
      <point x="599" y="-393"/>
      <point x="732" y="-360"/>
      <point x="864" y="-295" type="curve"/>
      <point x="801" y="-150" type="line"/>
      <point x="687" y="-209"/>
      <point x="577" y="-238"/>
      <point x="471" y="-238" type="curve" smooth="yes"/>
      <point x="312" y="-238"/>
      <point x="225" y="-161"/>
      <point x="225" y="-33" type="curve" smooth="yes"/>
      <point x="225" y="79"/>
      <point x="251" y="124"/>
      <point x="428" y="272" type="curve" smooth="yes"/>
      <point x="561" y="384"/>
      <point x="602" y="467"/>
      <point x="602" y="623" type="curve" smooth="yes"/>
      <point x="602" y="676" type="line"/>
      <point x="457" y="676" type="line"/>
    </contour>
    <contour>
      <point x="649" y="1076"/>
      <point x="594" y="1118"/>
      <point x="522" y="1118" type="curve" smooth="yes"/>
      <point x="453" y="1118"/>
      <point x="397" y="1076"/>
      <point x="397" y="979" type="curve" smooth="yes"/>
      <point x="397" y="891"/>
      <point x="439" y="842"/>
      <point x="522" y="842" type="curve" smooth="yes"/>
      <point x="607" y="842"/>
      <point x="649" y="888"/>
      <point x="649" y="979" type="curve" smooth="yes"/>
    </contour>
  </outline>
</glyph>
<glyph name="figuredash" format="2">
  <advance width="1171"/>
  <unicode hex="2012"/>
  <note>
    figuredash
  </note>
  <outline>
    <contour>
      <point x="1090" y="807" type="line"/>
      <point x="82" y="807" type="line"/>
      <point x="82" y="657" type="line"/>
      <point x="1090" y="657" type="line"/>
    </contour>
  </outline>
</glyph>
<glyph name="endash" format="2">
  <advance width="1024"/>
  <unicode hex="2013"/>
  <note>
    endash
  </note>
  <outline>
    <contour>
      <point x="942" y="629" type="line"/>
      <point x="82" y="629" type="line"/>
      <point x="82" y="469" type="line"/>
      <point x="942" y="469" type="line"/>
    </contour>
  </outline>
</glyph>
<glyph name="emdash" format="2">
  <advance width="2048"/>
  <unicode hex="2014"/>
  <note>
    emdash
  </note>
  <outline>
    <contour>
      <point x="1966" y="629" type="line"/>
      <point x="82" y="629" type="line"/>
      <point x="82" y="469" type="line"/>
      <point x="1966" y="469" type="line"/>
    </contour>
  </outline>
</glyph>
<glyph name="underscoredbl" format="2">
  <advance width="842"/>
  <unicode hex="2017"/>
  <note>
    underscoredbl
  </note>
  <outline>
    <contour>
      <point x="-4" y="-324" type="line"/>
      <point x="-4" y="-455" type="line"/>
      <point x="846" y="-455" type="line"/>
      <point x="846" y="-324" type="line"/>
    </contour>
    <contour>
      <point x="-4" y="-53" type="line"/>
      <point x="-4" y="-184" type="line"/>
      <point x="846" y="-184" type="line"/>
      <point x="846" y="-53" type="line"/>
    </contour>
  </outline>
</glyph>
<glyph name="quoteleft" format="2">
  <advance width="358"/>
  <unicode hex="2018"/>
  <note>
    quoteleft
  </note>
  <outline>
    <contour>
      <point x="256" y="1126"/>
      <point x="290" y="1293"/>
      <point x="334" y="1462" type="curve"/>
      <point x="201" y="1462" type="line"/>
      <point x="126" y="1301"/>
      <point x="54" y="1103"/>
      <point x="25" y="983" type="curve"/>
      <point x="37" y="961" type="line"/>
      <point x="231" y="961" type="line"/>
    </contour>
  </outline>
</glyph>
<glyph name="quoteright" format="2">
  <advance width="358"/>
  <unicode hex="2019"/>
  <note>
    quoteright
  </note>
  <outline>
    <contour>
      <point x="106" y="1318"/>
      <point x="72" y="1151"/>
      <point x="25" y="961" type="curve"/>
      <point x="158" y="961" type="line"/>
      <point x="241" y="1148"/>
      <point x="299" y="1307"/>
      <point x="334" y="1440" type="curve"/>
      <point x="319" y="1462" type="line"/>
      <point x="127" y="1462" type="line"/>
    </contour>
  </outline>
</glyph>
<glyph name="quotesinglbase" format="2">
  <advance width="512"/>
  <unicode hex="201A"/>
  <note>
    quotesinglbase
  </note>
  <outline>
    <contour>
      <point x="142" y="76"/>
      <point x="108" y="-91"/>
      <point x="63" y="-264" type="curve"/>
      <point x="197" y="-264" type="line"/>
      <point x="282" y="-69"/>
      <point x="341" y="91"/>
      <point x="373" y="215" type="curve"/>
      <point x="358" y="238" type="line"/>
      <point x="166" y="238" type="line"/>
    </contour>
  </outline>
</glyph>
<glyph name="quotereversed" format="2">
  <advance width="358"/>
  <unicode hex="201B"/>
  <note>
    quotereversed
  </note>
  <outline>
    <contour>
      <point x="25" y="1440" type="line"/>
      <point x="57" y="1305"/>
      <point x="143" y="1086"/>
      <point x="203" y="961" type="curve"/>
      <point x="336" y="961" type="line"/>
      <point x="292" y="1128"/>
      <point x="258" y="1295"/>
      <point x="233" y="1462" type="curve"/>
      <point x="39" y="1462" type="line"/>
    </contour>
  </outline>
</glyph>
<glyph name="quotedblleft" format="2">
  <advance width="735"/>
  <unicode hex="201C"/>
  <note>
    quotedblleft
  </note>
  <outline>
    <contour>
      <point x="632" y="1118"/>
      <point x="666" y="1285"/>
      <point x="711" y="1462" type="curve"/>
      <point x="578" y="1462" type="line"/>
      <point x="517" y="1334"/>
      <point x="435" y="1124"/>
      <point x="399" y="983" type="curve"/>
      <point x="414" y="961" type="line"/>
      <point x="608" y="961" type="line"/>
    </contour>
    <contour>
      <point x="253" y="1118"/>
      <point x="287" y="1285"/>
      <point x="332" y="1462" type="curve"/>
      <point x="201" y="1462" type="line"/>
      <point x="129" y="1310"/>
      <point x="52" y="1094"/>
      <point x="25" y="983" type="curve"/>
      <point x="37" y="961" type="line"/>
      <point x="229" y="961" type="line"/>
    </contour>
  </outline>
</glyph>
<glyph name="quotedblright" format="2">
  <advance width="735"/>
  <unicode hex="201D"/>
  <note>
    quotedblright
  </note>
  <outline>
    <contour>
      <point x="102" y="1304"/>
      <point x="68" y="1137"/>
      <point x="25" y="961" type="curve"/>
      <point x="156" y="961" type="line"/>
      <point x="241" y="1151"/>
      <point x="299" y="1311"/>
      <point x="332" y="1440" type="curve"/>
      <point x="317" y="1462" type="line"/>
      <point x="125" y="1462" type="line"/>
    </contour>
    <contour>
      <point x="487" y="1338"/>
      <point x="434" y="1094"/>
      <point x="399" y="961" type="curve"/>
      <point x="535" y="961" type="line"/>
      <point x="620" y="1151"/>
      <point x="678" y="1311"/>
      <point x="711" y="1440" type="curve"/>
      <point x="696" y="1462" type="line"/>
      <point x="504" y="1462" type="line"/>
    </contour>
  </outline>
</glyph>
<glyph name="quotedblbase" format="2">
  <advance width="852"/>
  <unicode hex="201E"/>
  <note>
    quotedblbase
  </note>
  <outline>
    <contour>
      <point x="104" y="70"/>
      <point x="70" y="-97"/>
      <point x="27" y="-264" type="curve"/>
      <point x="160" y="-264" type="line"/>
      <point x="245" y="-69"/>
      <point x="304" y="91"/>
      <point x="336" y="215" type="curve"/>
      <point x="322" y="238" type="line"/>
      <point x="129" y="238" type="line"/>
    </contour>
    <contour>
      <point x="487" y="99"/>
      <point x="439" y="-125"/>
      <point x="403" y="-264" type="curve"/>
      <point x="539" y="-264" type="line"/>
      <point x="624" y="-69"/>
      <point x="683" y="91"/>
      <point x="715" y="215" type="curve"/>
      <point x="700" y="238" type="line"/>
      <point x="508" y="238" type="line"/>
    </contour>
  </outline>
</glyph>
<glyph name="uni201F" format="2">
  <advance width="735"/>
  <unicode hex="201F"/>
  <note>
    uni201F
  </note>
  <outline>
    <contour>
      <point x="399" y="1440" type="line"/>
      <point x="436" y="1295"/>
      <point x="518" y="1086"/>
      <point x="578" y="961" type="curve"/>
      <point x="711" y="961" type="line"/>
      <point x="666" y="1138"/>
      <point x="632" y="1305"/>
      <point x="608" y="1462" type="curve"/>
      <point x="414" y="1462" type="line"/>
    </contour>
    <contour>
      <point x="25" y="1440" type="line"/>
      <point x="53" y="1321"/>
      <point x="129" y="1113"/>
      <point x="201" y="961" type="curve"/>
      <point x="332" y="961" type="line"/>
      <point x="287" y="1138"/>
      <point x="253" y="1305"/>
      <point x="229" y="1462" type="curve"/>
      <point x="37" y="1462" type="line"/>
    </contour>
  </outline>
</glyph>
<glyph name="bullet" format="2">
  <advance width="770"/>
  <unicode hex="2022"/>
  <note>
    bullet
  </note>
  <outline>
    <contour>
      <point x="158" y="587"/>
      <point x="238" y="494"/>
      <point x="385" y="494" type="curve" smooth="yes"/>
      <point x="529" y="494"/>
      <point x="612" y="585"/>
      <point x="612" y="748" type="curve" smooth="yes"/>
      <point x="612" y="911"/>
      <point x="532" y="1001"/>
      <point x="385" y="1001" type="curve" smooth="yes"/>
      <point x="237" y="1001"/>
      <point x="158" y="911"/>
      <point x="158" y="748" type="curve" smooth="yes"/>
    </contour>
  </outline>
</glyph>
<glyph name="ellipsis" format="2">
  <advance width="1620"/>
  <unicode hex="2026"/>
  <note>
    ellipsis
  </note>
  <outline>
    <contour>
      <point x="147" y="23"/>
      <point x="193" y="-29"/>
      <point x="272" y="-29" type="curve" smooth="yes"/>
      <point x="353" y="-29"/>
      <point x="401" y="24"/>
      <point x="401" y="111" type="curve" smooth="yes"/>
      <point x="401" y="199"/>
      <point x="353" y="248"/>
      <point x="272" y="248" type="curve" smooth="yes"/>
      <point x="192" y="248"/>
      <point x="147" y="199"/>
      <point x="147" y="111" type="curve" smooth="yes"/>
    </contour>
    <contour>
      <point x="684" y="12"/>
      <point x="737" y="-29"/>
      <point x="809" y="-29" type="curve" smooth="yes"/>
      <point x="888" y="-29"/>
      <point x="936" y="22"/>
      <point x="936" y="111" type="curve" smooth="yes"/>
      <point x="936" y="202"/>
      <point x="889" y="248"/>
      <point x="809" y="248" type="curve" smooth="yes"/>
      <point x="726" y="248"/>
      <point x="684" y="202"/>
      <point x="684" y="111" type="curve" smooth="yes"/>
    </contour>
    <contour>
      <point x="1219" y="12"/>
      <point x="1274" y="-29"/>
      <point x="1343" y="-29" type="curve" smooth="yes"/>
      <point x="1423" y="-29"/>
      <point x="1473" y="20"/>
      <point x="1473" y="111" type="curve" smooth="yes"/>
      <point x="1473" y="202"/>
      <point x="1424" y="248"/>
      <point x="1343" y="248" type="curve" smooth="yes"/>
      <point x="1266" y="248"/>
      <point x="1219" y="203"/>
      <point x="1219" y="111" type="curve" smooth="yes"/>
    </contour>
  </outline>
</glyph>
<glyph name="guilsinglleft" format="2">
  <advance width="635"/>
  <unicode hex="2039"/>
  <note>
    guilsinglleft
  </note>
  <outline>
    <contour>
      <point x="426" y="115" type="line"/>
      <point x="555" y="190" type="line"/>
      <point x="268" y="541" type="line"/>
      <point x="555" y="891" type="line"/>
      <point x="426" y="965" type="line"/>
      <point x="82" y="553" type="line"/>
      <point x="82" y="526" type="line"/>
    </contour>
  </outline>
</glyph>
<glyph name="guilsinglright" format="2">
  <advance width="635"/>
  <unicode hex="203A"/>
  <note>
    guilsinglright
  </note>
  <outline>
    <contour>
      <point x="207" y="965" type="line"/>
      <point x="80" y="891" type="line"/>
      <point x="367" y="541" type="line"/>
      <point x="80" y="190" type="line"/>
      <point x="207" y="115" type="line"/>
      <point x="553" y="526" type="line"/>
      <point x="553" y="553" type="line"/>
    </contour>
  </outline>
</glyph>
<glyph name="arrowright" format="2">
  <advance width="2048"/>
  <unicode hex="2192"/>
  <note>
    arrowright
  </note>
  <outline>
    <contour>
      <point x="418" y="647" type="line"/>
      <point x="1407" y="647" type="line"/>
      <point x="1369" y="602"/>
      <point x="1329" y="536"/>
      <point x="1288" y="450" type="curve"/>
      <point x="1360" y="450" type="line"/>
      <point x="1445" y="550"/>
      <point x="1535" y="624"/>
      <point x="1630" y="672" type="curve"/>
      <point x="1630" y="708" type="line"/>
      <point x="1535" y="756"/>
      <point x="1445" y="830"/>
      <point x="1360" y="930" type="curve"/>
      <point x="1288" y="930" type="line"/>
      <point x="1329" y="844"/>
      <point x="1369" y="778"/>
      <point x="1407" y="733" type="curve"/>
      <point x="418" y="733" type="line"/>
    </contour>
  </outline>
</glyph>
<glyph name="uni2639" format="2">
  <advance width="1630"/>
  <unicode hex="2639"/>
  <outline>
    <contour>
      <point x="104" y="596"/>
      <point x="136" y="478"/>
      <point x="199" y="368" type="curve" smooth="yes"/>
      <point x="326" y="147"/>
      <point x="562" y="12"/>
      <point x="815" y="12" type="curve" smooth="yes"/>
      <point x="942" y="12"/>
      <point x="1060" y="44"/>
      <point x="1171" y="107" type="curve" smooth="yes"/>
      <point x="1391" y="234"/>
      <point x="1526" y="470"/>
      <point x="1526" y="723" type="curve" smooth="yes"/>
      <point x="1526" y="850"/>
      <point x="1494" y="968"/>
      <point x="1431" y="1079" type="curve" smooth="yes"/>
      <point x="1304" y="1299"/>
      <point x="1068" y="1434"/>
      <point x="815" y="1434" type="curve" smooth="yes"/>
      <point x="688" y="1434"/>
      <point x="570" y="1402"/>
      <point x="460" y="1339" type="curve" smooth="yes"/>
      <point x="239" y="1212"/>
      <point x="104" y="976"/>
      <point x="104" y="723" type="curve" smooth="yes"/>
    </contour>
    <contour>
      <point x="453" y="921"/>
      <point x="490" y="963"/>
      <point x="545" y="963" type="curve" smooth="yes"/>
      <point x="598" y="963"/>
      <point x="637" y="921"/>
      <point x="637" y="870" type="curve" smooth="yes"/>
      <point x="637" y="818"/>
      <point x="597" y="778"/>
      <point x="545" y="778" type="curve" smooth="yes"/>
      <point x="493" y="778"/>
      <point x="453" y="818"/>
      <point x="453" y="870" type="curve" smooth="yes"/>
    </contour>
    <contour>
      <point x="993" y="921"/>
      <point x="1030" y="963"/>
      <point x="1085" y="963" type="curve" smooth="yes"/>
      <point x="1137" y="963"/>
      <point x="1178" y="922"/>
      <point x="1178" y="870" type="curve" smooth="yes"/>
      <point x="1178" y="817"/>
      <point x="1136" y="778"/>
      <point x="1085" y="778" type="curve" smooth="yes"/>
      <point x="1033" y="778"/>
      <point x="993" y="818"/>
      <point x="993" y="870" type="curve" smooth="yes"/>
    </contour>
    <contour>
      <point x="485" y="397" type="line"/>
      <point x="561" y="543"/>
      <point x="670" y="616"/>
      <point x="813" y="616" type="curve" smooth="yes"/>
      <point x="957" y="616"/>
      <point x="1067" y="543"/>
      <point x="1143" y="397" type="curve"/>
      <point x="1071" y="358" type="line"/>
      <point x="1012" y="465"/>
      <point x="926" y="518"/>
      <point x="813" y="518" type="curve" smooth="yes"/>
      <point x="698" y="518"/>
      <point x="612" y="465"/>
      <point x="555" y="358" type="curve"/>
    </contour>
  </outline>
</glyph>
<glyph name="smileface" format="2">
  <advance width="1630"/>
  <unicode hex="263A"/>
  <note>
    g1
  </note>
  <outline>
    <contour>
      <point x="104" y="596"/>
      <point x="136" y="478"/>
      <point x="199" y="368" type="curve" smooth="yes"/>
      <point x="326" y="147"/>
      <point x="562" y="12"/>
      <point x="815" y="12" type="curve" smooth="yes"/>
      <point x="942" y="12"/>
      <point x="1060" y="44"/>
      <point x="1171" y="107" type="curve" smooth="yes"/>
      <point x="1391" y="234"/>
      <point x="1526" y="470"/>
      <point x="1526" y="723" type="curve" smooth="yes"/>
      <point x="1526" y="850"/>
      <point x="1494" y="968"/>
      <point x="1431" y="1079" type="curve" smooth="yes"/>
      <point x="1304" y="1299"/>
      <point x="1068" y="1434"/>
      <point x="815" y="1434" type="curve" smooth="yes"/>
      <point x="688" y="1434"/>
      <point x="570" y="1402"/>
      <point x="460" y="1339" type="curve" smooth="yes"/>
      <point x="239" y="1212"/>
      <point x="104" y="976"/>
      <point x="104" y="723" type="curve" smooth="yes"/>
    </contour>
    <contour>
      <point x="215" y="828"/>
      <point x="242" y="928"/>
      <point x="296" y="1021" type="curve" smooth="yes"/>
      <point x="403" y="1208"/>
      <point x="602" y="1323"/>
      <point x="815" y="1323" type="curve" smooth="yes"/>
      <point x="920" y="1323"/>
      <point x="1020" y="1296"/>
      <point x="1113" y="1243" type="curve" smooth="yes"/>
      <point x="1300" y="1135"/>
      <point x="1415" y="936"/>
      <point x="1415" y="723" type="curve" smooth="yes"/>
      <point x="1415" y="618"/>
      <point x="1388" y="518"/>
      <point x="1335" y="425" type="curve" smooth="yes"/>
      <point x="1227" y="238"/>
      <point x="1028" y="123"/>
      <point x="815" y="123" type="curve" smooth="yes"/>
      <point x="710" y="123"/>
      <point x="610" y="150"/>
      <point x="517" y="204" type="curve" smooth="yes"/>
      <point x="330" y="311"/>
      <point x="215" y="510"/>
      <point x="215" y="723" type="curve" smooth="yes"/>
    </contour>
    <contour>
      <point x="453" y="818"/>
      <point x="493" y="778"/>
      <point x="545" y="778" type="curve" smooth="yes"/>
      <point x="597" y="778"/>
      <point x="637" y="818"/>
      <point x="637" y="870" type="curve" smooth="yes"/>
      <point x="637" y="921"/>
      <point x="598" y="963"/>
      <point x="545" y="963" type="curve" smooth="yes"/>
      <point x="490" y="963"/>
      <point x="453" y="921"/>
      <point x="453" y="870" type="curve" smooth="yes"/>
    </contour>
    <contour>
      <point x="993" y="818"/>
      <point x="1033" y="778"/>
      <point x="1085" y="778" type="curve" smooth="yes"/>
      <point x="1136" y="778"/>
      <point x="1178" y="817"/>
      <point x="1178" y="870" type="curve" smooth="yes"/>
      <point x="1178" y="922"/>
      <point x="1137" y="963"/>
      <point x="1085" y="963" type="curve" smooth="yes"/>
      <point x="1030" y="963"/>
      <point x="993" y="921"/>
      <point x="993" y="870" type="curve" smooth="yes"/>
    </contour>
    <contour>
      <point x="562" y="409"/>
      <point x="671" y="336"/>
      <point x="813" y="336" type="curve" smooth="yes"/>
      <point x="956" y="336"/>
      <point x="1066" y="409"/>
      <point x="1143" y="555" type="curve"/>
      <point x="1071" y="594" type="line"/>
      <point x="1012" y="487"/>
      <point x="926" y="434"/>
      <point x="813" y="434" type="curve" smooth="yes"/>
      <point x="698" y="434"/>
      <point x="612" y="487"/>
      <point x="555" y="594" type="curve"/>
      <point x="485" y="555" type="line"/>
    </contour>
  </outline>
</glyph>
<glyph name=".notdef" format="2">
  <advance width="1229"/>
  <note>
    .notdef
  </note>
  <outline>
    <contour>
      <point x="1034" y="0" type="line"/>
      <point x="1034" y="1462" type="line"/>
      <point x="193" y="1462" type="line"/>
      <point x="193" y="0" type="line"/>
    </contour>
    <contour>
      <point x="930" y="1358" type="line"/>
      <point x="930" y="104" type="line"/>
      <point x="297" y="104" type="line"/>
      <point x="297" y="1358" type="line"/>
    </contour>
  </outline>
</glyph>
